<?xml version="1.0" encoding="UTF-8" standalone="no"?>
<!DOCTYPE svg PUBLIC "-//W3C//DTD SVG 1.1//EN" "http://www.w3.org/Graphics/SVG/1.1/DTD/svg11.dtd">
<svg width="100%" height="100%" viewBox="0 0 1024 1024" version="1.1" xmlns="http://www.w3.org/2000/svg" xmlns:xlink="http://www.w3.org/1999/xlink" xml:space="preserve" xmlns:serif="http://www.serif.com/" style="fill-rule:evenodd;clip-rule:evenodd;stroke-linejoin:round;stroke-miterlimit:2;">
    <g transform="matrix(1.07542,0,0,1.12399,-46.0247,-69.2903)">
        <path d="M983.821,294.744C983.821,171.987 879.656,72.323 751.354,72.323L286.422,72.323C158.12,72.323 53.955,171.987 53.955,294.744L53.955,739.587C53.955,862.345 158.12,962.009 286.422,962.009L751.354,962.009C879.656,962.009 983.821,862.345 983.821,739.587L983.821,294.744Z" style="fill:url(#_Linear1);"/>
    </g>
    <g transform="matrix(1.93921,0,0,1.16546,-578.424,270.142)">
        <rect x="412.054" y="356.528" width="300.5" height="13.5" style="fill:white;"/>
    </g>
    <g transform="matrix(1.93921,0,0,1.16546,-578.424,330.746)">
        <rect x="412.054" y="356.528" width="300.5" height="13.5" style="fill:white;"/>
    </g>
    <g transform="matrix(1.93921,0,0,1.16546,-578.424,62.107)">
        <rect x="412.054" y="356.528" width="300.5" height="13.5" style="fill:white;"/>
    </g>
    <g transform="matrix(1.93921,0,0,1.16546,-578.424,0.746248)">
        <rect x="412.054" y="356.528" width="300.5" height="13.5" style="fill:white;"/>
    </g>
    <g transform="matrix(0.252538,-0.733422,1.10197,0.379438,-132.542,649.323)">
        <rect x="412.054" y="356.528" width="300.5" height="13.5" style="fill:white;"/>
    </g>
    <g transform="matrix(1.16546,0,0,1.16546,-70.4585,204.93)">
        <g transform="matrix(300,0,0,300,305.554,413.028)">
            <path d="M0.189,-0L0.024,-0L0.275,-0.727L0.473,-0.727L0.724,-0L0.559,-0L0.377,-0.561L0.371,-0.561L0.189,-0ZM0.178,-0.286L0.567,-0.286L0.567,-0.166L0.178,-0.166L0.178,-0.286Z" style="fill:white;fill-rule:nonzero;"/>
        </g>
        <g transform="matrix(300,0,0,300,529.915,413.028)">
            <path d="M0.216,0.01C0.181,0.01 0.15,0.004 0.123,-0.008C0.096,-0.02 0.074,-0.038 0.058,-0.062C0.043,-0.086 0.035,-0.116 0.035,-0.152C0.035,-0.183 0.04,-0.208 0.051,-0.229C0.063,-0.249 0.078,-0.266 0.097,-0.278C0.116,-0.291 0.138,-0.3 0.162,-0.307C0.187,-0.313 0.213,-0.318 0.24,-0.32C0.271,-0.324 0.297,-0.327 0.316,-0.33C0.336,-0.333 0.35,-0.337 0.359,-0.343C0.367,-0.349 0.372,-0.358 0.372,-0.369L0.372,-0.371C0.372,-0.394 0.365,-0.411 0.351,-0.424C0.337,-0.436 0.317,-0.442 0.291,-0.442C0.264,-0.442 0.242,-0.436 0.226,-0.424C0.21,-0.412 0.199,-0.397 0.194,-0.379L0.054,-0.391C0.061,-0.424 0.075,-0.452 0.096,-0.477C0.117,-0.501 0.144,-0.52 0.177,-0.533C0.21,-0.546 0.248,-0.553 0.292,-0.553C0.322,-0.553 0.351,-0.549 0.379,-0.542C0.407,-0.535 0.431,-0.524 0.453,-0.509C0.475,-0.494 0.492,-0.475 0.504,-0.452C0.517,-0.428 0.523,-0.4 0.523,-0.368L0.523,-0L0.38,-0L0.38,-0.076L0.375,-0.076C0.367,-0.059 0.355,-0.044 0.34,-0.031C0.326,-0.018 0.308,-0.008 0.287,-0.001C0.267,0.007 0.243,0.01 0.216,0.01ZM0.259,-0.094C0.281,-0.094 0.301,-0.099 0.318,-0.107C0.335,-0.116 0.349,-0.128 0.358,-0.143C0.368,-0.159 0.373,-0.176 0.373,-0.195L0.373,-0.253C0.368,-0.25 0.362,-0.247 0.354,-0.244C0.345,-0.242 0.336,-0.24 0.326,-0.238C0.316,-0.236 0.306,-0.234 0.295,-0.232C0.285,-0.231 0.276,-0.23 0.268,-0.228C0.25,-0.226 0.234,-0.222 0.221,-0.216C0.208,-0.21 0.198,-0.203 0.19,-0.193C0.183,-0.183 0.179,-0.172 0.179,-0.157C0.179,-0.137 0.187,-0.121 0.202,-0.11C0.217,-0.099 0.236,-0.094 0.259,-0.094Z" style="fill:white;fill-rule:nonzero;"/>
        </g>
    </g>
    <defs>
        <linearGradient id="_Linear1" x1="0" y1="0" x2="1" y2="0" gradientUnits="userSpaceOnUse" gradientTransform="matrix(954.876,-911.683,952.856,913.616,42.7968,968.819)"><stop offset="0" style="stop-color:rgb(8,174,234);stop-opacity:1"/><stop offset="0" style="stop-color:rgb(255,121,1);stop-opacity:1"/><stop offset="1" style="stop-color:rgb(227,1,131);stop-opacity:1"/></linearGradient>
    </defs>
</svg>
