<?xml version="1.0" encoding="UTF-8" standalone="no"?>
<!DOCTYPE svg PUBLIC "-//W3C//DTD SVG 1.1//EN" "http://www.w3.org/Graphics/SVG/1.1/DTD/svg11.dtd">
<svg width="100%" height="100%" viewBox="0 0 1024 1024" version="1.1" xmlns="http://www.w3.org/2000/svg" xmlns:xlink="http://www.w3.org/1999/xlink" xml:space="preserve" xmlns:serif="http://www.serif.com/" style="fill-rule:evenodd;clip-rule:evenodd;stroke-linejoin:round;stroke-miterlimit:2;">
    <g transform="matrix(1.07542,0,0,1.12399,-46.0247,-69.2903)">
        <path d="M983.821,294.744C983.821,171.987 879.656,72.323 751.354,72.323L286.422,72.323C158.12,72.323 53.955,171.987 53.955,294.744L53.955,739.587C53.955,862.345 158.12,962.009 286.422,962.009L751.354,962.009C879.656,962.009 983.821,862.345 983.821,739.587L983.821,294.744Z" style="fill:url(#_Linear1);"/>
    </g>
    <path d="M762,762L762,302L553.967,302L553.967,343.707L720.288,343.707L720.331,386.615L720.274,386.615L720.288,428.322L720.288,720.288L345.418,720.288L345.418,595.163L345.287,595.163L345.418,510.548L303.712,510.548L303.712,762L762,762Z" style="fill:white;fill-rule:nonzero;"/>
    <g transform="matrix(5.14896,0,0,5.14896,259.506,226.022)">
        <path d="M1.497,48.503C2.705,50.918 8.248,49.853 9.598,48.503C10.948,47.153 8.248,41.752 9.598,40.402C10.948,39.052 16.349,39.052 17.699,40.402C19.049,41.752 16.349,47.153 17.699,48.503C19.049,49.853 24.45,49.853 25.8,48.503C27.15,47.153 24.45,41.752 25.8,40.402C27.15,39.052 32.551,39.052 33.901,40.402C35.251,41.752 32.551,47.153 33.901,48.503C35.251,49.853 40.65,49.853 42,48.503C43.35,47.153 40.65,41.752 42,40.402C43.35,39.052 48.751,39.052 50.101,40.402C51.451,41.752 48.751,47.153 50.101,48.503C51.451,49.853 56.994,50.918 58.202,48.503C59.552,45.803 59.552,35.002 58.202,32.302C56.994,29.887 51.309,34.717 50.101,32.302C48.751,29.602 51.451,18.801 50.101,16.101C48.893,13.686 43.35,17.451 42,16.101C40.65,14.751 43.35,9.35 42,8C40.65,6.65 35.249,6.65 33.899,8C32.549,9.35 35.249,14.751 33.899,16.101C32.549,17.451 27.148,17.451 25.798,16.101C24.448,14.751 27.148,9.35 25.798,8C24.448,6.65 19.047,6.65 17.697,8C16.347,9.35 19.047,14.751 17.697,16.101C16.347,17.451 10.805,13.686 9.598,16.101C8.248,18.801 10.948,29.602 9.598,32.302C8.39,34.717 2.705,29.887 1.497,32.302C0.147,35.002 0.147,45.803 1.497,48.503ZM17.698,32.302C16.348,30.952 16.348,25.551 17.698,24.201C19.048,22.851 24.449,22.851 25.799,24.201C27.149,25.551 27.149,30.952 25.799,32.302C24.449,33.652 19.048,33.652 17.698,32.302ZM33.899,32.302C32.549,30.952 32.549,25.551 33.899,24.201C35.249,22.851 40.65,22.851 42,24.201C43.35,25.551 43.35,30.952 42,32.302C40.65,33.652 35.249,33.652 33.899,32.302Z" style="fill:white;fill-rule:nonzero;"/>
    </g>
    <defs>
        <linearGradient id="_Linear1" x1="0" y1="0" x2="1" y2="0" gradientUnits="userSpaceOnUse" gradientTransform="matrix(951.509,-907.173,948.142,910.394,42.1234,970.108)"><stop offset="0" style="stop-color:rgb(152,1,228);stop-opacity:1"/><stop offset="1" style="stop-color:rgb(227,1,131);stop-opacity:1"/></linearGradient>
    </defs>
</svg>
