<?xml version="1.0" encoding="UTF-8" standalone="no"?>
<!DOCTYPE svg PUBLIC "-//W3C//DTD SVG 1.1//EN" "http://www.w3.org/Graphics/SVG/1.1/DTD/svg11.dtd">
<svg width="100%" height="100%" viewBox="0 0 1024 1024" version="1.1" xmlns="http://www.w3.org/2000/svg" xmlns:xlink="http://www.w3.org/1999/xlink" xml:space="preserve" xmlns:serif="http://www.serif.com/" style="fill-rule:evenodd;clip-rule:evenodd;stroke-linejoin:round;stroke-miterlimit:2;">
    <g transform="matrix(1.07542,0,0,1.12399,-46.0247,-69.2903)">
        <path d="M983.821,294.744C983.821,171.987 879.656,72.323 751.354,72.323L286.422,72.323C158.12,72.323 53.955,171.987 53.955,294.744L53.955,739.587C53.955,862.345 158.12,962.009 286.422,962.009L751.354,962.009C879.656,962.009 983.821,862.345 983.821,739.587L983.821,294.744Z" style="fill:url(#_Linear1);"/>
    </g>
    <g transform="matrix(5.95238,0,0,6.41026,214.381,-5913.4)">
        <path d="M37,963.362C26.507,963.362 18,971.869 18,982.362C18,983.34 18.076,984.299 18.219,985.237C12.736,988.052 9,993.753 9,1000.36C9,1009.78 16.582,1017.36 26,1017.36L48,1017.36L48,1031.8C46.856,1032.3 45.941,1033.22 45.437,1034.36L17.562,1034.36C16.788,1032.6 15.046,1031.36 13,1031.36C10.239,1031.36 8,1033.6 8,1036.36C8,1039.12 10.239,1041.36 13,1041.36C15.046,1041.36 16.788,1040.12 17.562,1038.36L45.437,1038.36C46.212,1040.12 47.954,1041.36 50,1041.36C52.046,1041.36 53.788,1040.12 54.562,1038.36L82.438,1038.36C83.212,1040.12 84.954,1041.36 87,1041.36C89.761,1041.36 92,1039.12 92,1036.36C92,1033.6 89.761,1031.36 87,1031.36C84.954,1031.36 83.212,1032.6 82.438,1034.36L54.562,1034.36C54.059,1033.22 53.144,1032.3 52,1031.8L52,1017.36L75,1017.36C83.837,1017.36 91,1010.2 91,1001.36C91,993.164 84.822,986.421 76.875,985.487C75.958,978.643 70.095,973.362 63,973.362C59.963,973.362 57.169,974.345 54.875,975.987C52.253,968.632 45.255,963.362 37,963.362Z" style="fill:white;fill-rule:nonzero;"/>
    </g>
    <defs>
        <linearGradient id="_Linear1" x1="0" y1="0" x2="1" y2="0" gradientUnits="userSpaceOnUse" gradientTransform="matrix(955.549,-911.039,952.182,914.26,40.7766,968.819)"><stop offset="0" style="stop-color:rgb(30,203,225);stop-opacity:1"/><stop offset="1" style="stop-color:rgb(227,1,131);stop-opacity:1"/></linearGradient>
    </defs>
</svg>
