<?xml version="1.0" encoding="UTF-8" standalone="no"?>
<!DOCTYPE svg PUBLIC "-//W3C//DTD SVG 1.1//EN" "http://www.w3.org/Graphics/SVG/1.1/DTD/svg11.dtd">
<svg width="100%" height="100%" viewBox="0 0 1024 1024" version="1.1" xmlns="http://www.w3.org/2000/svg" xmlns:xlink="http://www.w3.org/1999/xlink" xml:space="preserve" xmlns:serif="http://www.serif.com/" style="fill-rule:evenodd;clip-rule:evenodd;stroke-linecap:round;stroke-linejoin:round;stroke-miterlimit:1.5;">
    <g transform="matrix(1.07542,0,0,1.12399,-46.0247,-69.2903)">
        <path d="M983.821,294.744C983.821,171.987 879.656,72.323 751.354,72.323L286.422,72.323C158.12,72.323 53.955,171.987 53.955,294.744L53.955,739.587C53.955,862.345 158.12,962.009 286.422,962.009L751.354,962.009C879.656,962.009 983.821,862.345 983.821,739.587L983.821,294.744Z" style="fill:url(#_Linear1);"/>
    </g>
    <g transform="matrix(1.0398,0,0,0.941883,-10.4348,28.0446)">
        <rect x="262.156" y="749.533" width="480.86" height="29.692" style="fill:white;"/>
    </g>
    <g transform="matrix(1.54475,0,0,1.54003,-156.247,-203.764)">
        <path d="M313.102,505.013L375.044,566.956L271.162,608.896L313.102,505.013M375.085,566.969L539.462,402.592L477.501,340.63L313.124,505.007L375.085,566.969M515.818,302.297L484.847,333.268L546.79,395.21L577.761,364.239L515.818,302.297Z" style="fill:white;stroke:white;stroke-width:0.65px;"/>
    </g>
    <defs>
        <linearGradient id="_Linear1" x1="0" y1="0" x2="1" y2="0" gradientUnits="userSpaceOnUse" gradientTransform="matrix(950.835,-904.596,945.448,909.75,42.7968,967.531)"><stop offset="0" style="stop-color:rgb(1,134,228);stop-opacity:1"/><stop offset="1" style="stop-color:rgb(227,1,131);stop-opacity:1"/></linearGradient>
    </defs>
</svg>
