<?xml version="1.0" encoding="UTF-8" standalone="no"?>
<!DOCTYPE svg PUBLIC "-//W3C//DTD SVG 1.1//EN" "http://www.w3.org/Graphics/SVG/1.1/DTD/svg11.dtd">
<svg width="100%" height="100%" viewBox="0 0 1024 1024" version="1.1" xmlns="http://www.w3.org/2000/svg" xmlns:xlink="http://www.w3.org/1999/xlink" xml:space="preserve" xmlns:serif="http://www.serif.com/" style="fill-rule:evenodd;clip-rule:evenodd;stroke-linejoin:round;stroke-miterlimit:2;">
    <g transform="matrix(1.07542,0,0,1.12399,-46.0247,-69.2903)">
        <path d="M983.821,294.744C983.821,171.987 879.656,72.323 751.354,72.323L286.422,72.323C158.12,72.323 53.955,171.987 53.955,294.744L53.955,739.587C53.955,862.345 158.12,962.009 286.422,962.009L751.354,962.009C879.656,962.009 983.821,862.345 983.821,739.587L983.821,294.744Z" style="fill:url(#_Linear1);"/>
    </g>
    <g transform="matrix(0.821621,0,0,1,119.643,0)">
        <path d="M112.408,762L299.15,404.47L408.821,614.443L484.947,516.219L591.826,654.124L652.186,604.083L842.671,762L112.408,762Z" style="fill:white;"/>
    </g>
    <g transform="matrix(0.797872,0,0,0.797872,69.5473,100.798)">
        <circle cx="758.834" cy="281" r="94" style="fill:white;"/>
    </g>
    <defs>
        <linearGradient id="_Linear1" x1="0" y1="0" x2="1" y2="0" gradientUnits="userSpaceOnUse" gradientTransform="matrix(951.509,-907.173,948.142,910.394,42.1234,970.108)"><stop offset="0" style="stop-color:rgb(228,209,1);stop-opacity:1"/><stop offset="1" style="stop-color:rgb(227,1,131);stop-opacity:1"/></linearGradient>
    </defs>
</svg>
