<svg viewBox="0 0 1399 1399" xmlns="http://www.w3.org/2000/svg" fill-rule="evenodd" clip-rule="evenodd" stroke-linejoin="round" stroke-miterlimit="2"><path fill="none" d="M0 0h1398.81v1398.81H0z"/><path d="M64 1H18.591a1 1 0 000 2h9.97v11.778H16.785V8.889a1 1 0 00-2 0v6.889a1 1 0 001 1h12.776v11.778h-5.889a1 1 0 00-1 1v5.888h-4.887V23.667h5.887a1 1 0 100-2h-6.887a1 1 0 00-1 1v12.777H9.897V15.778a1 1 0 00-2 0V32H3V3h4.654a1 1 0 100-2H2a1 1 0 00-1 1v62a1 1 0 001 1h62a1 1 0 001-1v-8.17a1 1 0 00-2 0V63H51.224v-5.889a1 1 0 00-1-1H37.448v-4.944h5.888a1 1 0 001-1V30.556h4.888v19.666a1 1 0 001 1h5.888v5.889a1 1 0 002 0v-6.889a1 1 0 00-1-1h-5.888V37.444h5.888a1 1 0 001-1V15.778a1 1 0 00-1-1H44.336V8.889a1 1 0 00-2 0v5.889h-5.888a1 1 0 00-1 1v6.889a1 1 0 002 0v-5.889h11.776v4.889h-5.888a1 1 0 100 2h6.888a1 1 0 001-1v-5.889h4.888v18.666h-4.888v-5.888a1 1 0 00-1-1h-6.888a1 1 0 00-1 1v19.611H29.561a1 1 0 100 2h5.887v4.944H22.672a1 1 0 000 2h26.552V63H16.785v-5.889a1 1 0 00-2 0V63H3V51.167h4.897v5.944a1 1 0 002 0V44.333h4.888v5.889a1 1 0 001 1h6.887a1 1 0 100-2h-5.887V37.444h4.887v5.889a1 1 0 001 1h6.889a1 1 0 000-2h-5.889V30.556h11.776v4.888h-5.887a1 1 0 100 2h5.887v5.889a1 1 0 002 0V29.556a1 1 0 00-1-1h-5.887V9.889h5.887a1 1 0 100-2h-5.887V3h18.663v5.889a1 1 0 002 0V3H63v4.889h-5.888a1 1 0 000 2H63v32.444h-5.888a1 1 0 000 2H63v2.455a1 1 0 002 0V2a1 1 0 00-1-1zM8.897 42.333a1 1 0 00-1 1v5.834H3V34h4.897v2.444a1 1 0 001 1h5.888v4.889H8.897z" fill="url(#_Linear1)" fill-rule="nonzero" transform="rotate(-30 933.548 293.857) scale(16)"/><defs><linearGradient id="_Linear1" x1="0" y1="0" x2="1" y2="0" gradientUnits="userSpaceOnUse" gradientTransform="matrix(64 0 0 64 1 33)"><stop offset="0" stop-color="#f9f9f9"/><stop offset=".2" stop-color="#f5f5f5"/><stop offset=".42" stop-color="#f1f1f1"/><stop offset="1" stop-color="#efefef"/></linearGradient></defs></svg>