<?xml version="1.0" encoding="UTF-8" standalone="no"?>
<!DOCTYPE svg PUBLIC "-//W3C//DTD SVG 1.1//EN" "http://www.w3.org/Graphics/SVG/1.1/DTD/svg11.dtd">
<svg width="100%" height="100%" viewBox="0 0 4000 1024" version="1.1" xmlns="http://www.w3.org/2000/svg" xmlns:xlink="http://www.w3.org/1999/xlink" xml:space="preserve" xmlns:serif="http://www.serif.com/" style="fill-rule:evenodd;clip-rule:evenodd;stroke-linejoin:round;stroke-miterlimit:2;">
    <g transform="matrix(7.38187,0,0,7.38187,12,11.9963)">
        <path d="M101.664,126.506C112.938,106.958 124.191,87.396 135.467,67.848C130.155,58.473 124.702,49.193 119.377,39.84C96.939,39.607 74.51,40.027 52.077,39.62C46.169,48.74 41.135,58.422 35.587,67.781C41.321,77.478 46.744,87.351 51.755,95.653C62.405,95.762 73.565,95.867 84.216,95.568C88.616,87.109 93.46,78.857 98.209,70.642C92.383,70.612 86.53,70.546 80.71,70.567C78.92,73.71 77.166,76.865 75.402,80.025C70.624,80.137 65.514,80.238 60.582,80.272C58.188,76.164 55.858,72.007 53.405,67.932C55.723,63.522 58.14,59.173 60.863,55.005C77.451,55.459 94.048,54.923 110.642,55.295C112.912,59.487 115.348,63.575 117.746,67.691C111.666,78.104 97.125,102.871 92.563,110.637C75.888,110.848 57.553,111 42.938,111.129C34.555,96.695 26.299,82.187 17.903,67.759C26.076,53.312 34.624,39.082 42.641,24.552C65.232,24.184 87.851,24.581 110.444,24.329C107.464,19.172 104.474,13.962 101.583,8.945C77.101,8.975 55.063,8.984 33.769,8.945C22.739,28.23 11.133,48.177 0,67.335C11.717,87.696 24.039,109.077 34.001,126.523C56.554,126.386 79.107,126.5 101.664,126.506Z" style="fill:url(#_Linear1);fill-rule:nonzero;"/>
        <g transform="matrix(0.135467,0,0,0.135467,-18.8252,49.6453)">
            <g transform="matrix(500,0,0,500,1281.74,312.484)">
                <path d="M0.059,-0.028L0.059,-0.125C0.07,-0.115 0.083,-0.106 0.099,-0.099C0.114,-0.091 0.131,-0.084 0.148,-0.079C0.165,-0.073 0.182,-0.069 0.199,-0.066C0.216,-0.063 0.232,-0.062 0.247,-0.062C0.298,-0.062 0.335,-0.071 0.36,-0.09C0.385,-0.109 0.397,-0.136 0.397,-0.171C0.397,-0.19 0.393,-0.206 0.385,-0.22C0.377,-0.234 0.365,-0.247 0.351,-0.259C0.336,-0.27 0.319,-0.281 0.299,-0.292C0.279,-0.302 0.257,-0.313 0.234,-0.325C0.209,-0.338 0.187,-0.35 0.166,-0.363C0.144,-0.375 0.126,-0.389 0.11,-0.405C0.095,-0.42 0.082,-0.437 0.073,-0.457C0.065,-0.476 0.06,-0.499 0.06,-0.525C0.06,-0.557 0.067,-0.585 0.081,-0.608C0.095,-0.632 0.113,-0.651 0.136,-0.667C0.159,-0.682 0.185,-0.693 0.214,-0.701C0.243,-0.708 0.273,-0.712 0.303,-0.712C0.372,-0.712 0.423,-0.704 0.454,-0.687L0.454,-0.595C0.413,-0.623 0.36,-0.638 0.295,-0.638C0.277,-0.638 0.259,-0.636 0.241,-0.632C0.223,-0.628 0.207,-0.622 0.193,-0.614C0.179,-0.605 0.168,-0.594 0.159,-0.581C0.15,-0.568 0.146,-0.551 0.146,-0.532C0.146,-0.514 0.149,-0.499 0.156,-0.486C0.163,-0.473 0.173,-0.461 0.186,-0.45C0.199,-0.439 0.214,-0.429 0.233,-0.419C0.252,-0.409 0.273,-0.398 0.298,-0.386C0.323,-0.373 0.347,-0.36 0.369,-0.347C0.392,-0.333 0.411,-0.318 0.428,-0.301C0.445,-0.285 0.459,-0.266 0.469,-0.246C0.478,-0.226 0.483,-0.203 0.483,-0.177C0.483,-0.142 0.477,-0.113 0.463,-0.089C0.45,-0.065 0.431,-0.046 0.408,-0.031C0.385,-0.016 0.359,-0.005 0.329,0.002C0.299,0.008 0.268,0.012 0.234,0.012C0.223,0.012 0.21,0.011 0.193,0.009C0.177,0.007 0.16,0.005 0.144,0.001C0.127,-0.002 0.111,-0.006 0.095,-0.011C0.08,-0.017 0.068,-0.022 0.059,-0.028Z" style="fill-rule:nonzero;"/>
            </g>
            <g transform="matrix(500,0,0,500,1547.37,312.484)">
                <rect x="0.092" y="-0.7" width="0.082" height="0.7" style="fill-rule:nonzero;"/>
            </g>
            <g transform="matrix(500,0,0,500,1680.42,312.484)">
                <path d="M0.575,-0L0.475,-0L0.314,-0.268C0.309,-0.276 0.304,-0.288 0.298,-0.303L0.296,-0.303C0.293,-0.295 0.287,-0.284 0.279,-0.268L0.113,-0L0.013,-0L0.247,-0.352L0.031,-0.7L0.132,-0.7L0.275,-0.454C0.284,-0.438 0.293,-0.422 0.3,-0.405L0.302,-0.405C0.312,-0.427 0.321,-0.444 0.329,-0.456L0.478,-0.7L0.572,-0.7L0.352,-0.353L0.575,-0Z" style="fill-rule:nonzero;"/>
            </g>
            <g transform="matrix(500,0,0,500,2112.31,312.484)">
                <path d="M0.455,-0L0.092,-0L0.092,-0.7L0.174,-0.7L0.174,-0.074L0.455,-0.074L0.455,-0Z" style="fill-rule:nonzero;"/>
            </g>
            <g transform="matrix(500,0,0,500,2362.31,312.484)">
                <path d="M0.634,-0L0.543,-0L0.469,-0.196L0.172,-0.196L0.102,-0L0.011,-0L0.279,-0.7L0.364,-0.7L0.634,-0ZM0.442,-0.27L0.332,-0.568C0.328,-0.578 0.325,-0.594 0.321,-0.615L0.319,-0.615C0.316,-0.595 0.312,-0.58 0.308,-0.568L0.199,-0.27L0.442,-0.27Z" style="fill-rule:nonzero;"/>
            </g>
            <g transform="matrix(500,0,0,500,2684.82,312.484)">
                <path d="M0.092,-0L0.092,-0.7L0.291,-0.7C0.352,-0.7 0.4,-0.685 0.435,-0.656C0.471,-0.626 0.488,-0.588 0.488,-0.54C0.488,-0.5 0.478,-0.466 0.456,-0.437C0.435,-0.407 0.405,-0.386 0.367,-0.374L0.367,-0.372C0.414,-0.367 0.452,-0.349 0.48,-0.319C0.509,-0.288 0.523,-0.249 0.523,-0.201C0.523,-0.141 0.501,-0.093 0.458,-0.056C0.416,-0.019 0.361,-0 0.296,-0L0.092,-0ZM0.174,-0.626L0.174,-0.4L0.258,-0.4C0.303,-0.4 0.338,-0.411 0.364,-0.432C0.389,-0.454 0.402,-0.485 0.402,-0.524C0.402,-0.592 0.358,-0.626 0.268,-0.626L0.174,-0.626ZM0.174,-0.326L0.174,-0.074L0.285,-0.074C0.333,-0.074 0.371,-0.086 0.397,-0.108C0.424,-0.131 0.437,-0.162 0.437,-0.202C0.437,-0.285 0.381,-0.326 0.268,-0.326L0.174,-0.326Z" style="fill-rule:nonzero;"/>
            </g>
            <g transform="matrix(500,0,0,500,2971.44,312.484)">
                <path d="M0.374,0.012C0.275,0.012 0.195,-0.021 0.135,-0.086C0.076,-0.152 0.046,-0.237 0.046,-0.342C0.046,-0.454 0.076,-0.544 0.137,-0.611C0.198,-0.678 0.281,-0.712 0.386,-0.712C0.482,-0.712 0.56,-0.679 0.619,-0.614C0.678,-0.549 0.708,-0.464 0.708,-0.359C0.708,-0.245 0.678,-0.154 0.617,-0.088C0.557,-0.021 0.476,0.012 0.374,0.012ZM0.38,-0.638C0.306,-0.638 0.247,-0.611 0.201,-0.558C0.155,-0.505 0.132,-0.435 0.132,-0.349C0.132,-0.263 0.154,-0.193 0.199,-0.141C0.244,-0.088 0.302,-0.062 0.374,-0.062C0.451,-0.062 0.511,-0.087 0.556,-0.137C0.6,-0.187 0.622,-0.257 0.622,-0.348C0.622,-0.44 0.601,-0.512 0.558,-0.562C0.515,-0.612 0.455,-0.638 0.38,-0.638Z" style="fill-rule:nonzero;"/>
            </g>
            <g transform="matrix(500,0,0,500,3348.39,312.484)">
                <path d="M0.594,-0L0.496,-0L0.379,-0.196C0.368,-0.215 0.358,-0.23 0.348,-0.243C0.338,-0.256 0.327,-0.266 0.317,-0.274C0.306,-0.283 0.295,-0.288 0.282,-0.292C0.27,-0.296 0.257,-0.298 0.241,-0.298L0.174,-0.298L0.174,-0L0.092,-0L0.092,-0.7L0.301,-0.7C0.331,-0.7 0.36,-0.696 0.385,-0.689C0.411,-0.681 0.434,-0.669 0.453,-0.654C0.472,-0.638 0.487,-0.619 0.498,-0.595C0.508,-0.572 0.514,-0.545 0.514,-0.514C0.514,-0.489 0.51,-0.467 0.503,-0.447C0.495,-0.426 0.485,-0.408 0.471,-0.392C0.458,-0.376 0.442,-0.363 0.423,-0.351C0.404,-0.34 0.382,-0.331 0.358,-0.325L0.358,-0.323C0.37,-0.318 0.38,-0.312 0.389,-0.305C0.398,-0.299 0.406,-0.291 0.414,-0.282C0.421,-0.273 0.429,-0.262 0.437,-0.251C0.444,-0.239 0.453,-0.226 0.462,-0.21L0.594,-0ZM0.174,-0.626L0.174,-0.372L0.285,-0.372C0.306,-0.372 0.325,-0.375 0.342,-0.381C0.359,-0.388 0.375,-0.396 0.387,-0.408C0.4,-0.42 0.41,-0.434 0.417,-0.45C0.424,-0.467 0.428,-0.486 0.428,-0.507C0.428,-0.544 0.416,-0.573 0.391,-0.594C0.367,-0.615 0.332,-0.626 0.286,-0.626L0.174,-0.626Z" style="fill-rule:nonzero;"/>
            </g>
            <g transform="matrix(500,0,0,500,3647.46,312.484)">
                <path d="M0.059,-0.028L0.059,-0.125C0.07,-0.115 0.083,-0.106 0.099,-0.099C0.114,-0.091 0.131,-0.084 0.148,-0.079C0.165,-0.073 0.182,-0.069 0.199,-0.066C0.216,-0.063 0.232,-0.062 0.247,-0.062C0.298,-0.062 0.335,-0.071 0.36,-0.09C0.385,-0.109 0.397,-0.136 0.397,-0.171C0.397,-0.19 0.393,-0.206 0.385,-0.22C0.377,-0.234 0.365,-0.247 0.351,-0.259C0.336,-0.27 0.319,-0.281 0.299,-0.292C0.279,-0.302 0.257,-0.313 0.234,-0.325C0.209,-0.338 0.187,-0.35 0.166,-0.363C0.144,-0.375 0.126,-0.389 0.11,-0.405C0.095,-0.42 0.082,-0.437 0.073,-0.457C0.065,-0.476 0.06,-0.499 0.06,-0.525C0.06,-0.557 0.067,-0.585 0.081,-0.608C0.095,-0.632 0.113,-0.651 0.136,-0.667C0.159,-0.682 0.185,-0.693 0.214,-0.701C0.243,-0.708 0.273,-0.712 0.303,-0.712C0.372,-0.712 0.423,-0.704 0.454,-0.687L0.454,-0.595C0.413,-0.623 0.36,-0.638 0.295,-0.638C0.277,-0.638 0.259,-0.636 0.241,-0.632C0.223,-0.628 0.207,-0.622 0.193,-0.614C0.179,-0.605 0.168,-0.594 0.159,-0.581C0.15,-0.568 0.146,-0.551 0.146,-0.532C0.146,-0.514 0.149,-0.499 0.156,-0.486C0.163,-0.473 0.173,-0.461 0.186,-0.45C0.199,-0.439 0.214,-0.429 0.233,-0.419C0.252,-0.409 0.273,-0.398 0.298,-0.386C0.323,-0.373 0.347,-0.36 0.369,-0.347C0.392,-0.333 0.411,-0.318 0.428,-0.301C0.445,-0.285 0.459,-0.266 0.469,-0.246C0.478,-0.226 0.483,-0.203 0.483,-0.177C0.483,-0.142 0.477,-0.113 0.463,-0.089C0.45,-0.065 0.431,-0.046 0.408,-0.031C0.385,-0.016 0.359,-0.005 0.329,0.002C0.299,0.008 0.268,0.012 0.234,0.012C0.223,0.012 0.21,0.011 0.193,0.009C0.177,0.007 0.16,0.005 0.144,0.001C0.127,-0.002 0.111,-0.006 0.095,-0.011C0.08,-0.017 0.068,-0.022 0.059,-0.028Z" style="fill-rule:nonzero;"/>
            </g>
        </g>
    </g>
    <defs>
        <linearGradient id="_Linear1" x1="0" y1="0" x2="1" y2="0" gradientUnits="userSpaceOnUse" gradientTransform="matrix(134.605,-134.489,134.489,134.605,0.191608,134.988)"><stop offset="0" style="stop-color:rgb(159,25,35);stop-opacity:1"/><stop offset="1" style="stop-color:rgb(227,1,131);stop-opacity:1"/></linearGradient>
    </defs>
</svg>
