<svg viewBox="0 0 1024 1024" xmlns="http://www.w3.org/2000/svg" fill-rule="evenodd" clip-rule="evenodd" stroke-linejoin="round" stroke-miterlimit="2"><path d="M983.821 294.744c0-122.757-104.165-222.421-232.467-222.421H286.422c-128.302 0-232.467 99.664-232.467 222.421v444.843c0 122.758 104.165 222.422 232.467 222.422h464.932c128.302 0 232.467-99.664 232.467-222.422V294.744z" fill="url(#_Linear1)" transform="matrix(1.07542 0 0 1.12399 -46.025 -69.29)"/><path d="M656.29 761.928c47.943-83.128 95.796-166.316 143.747-249.443-22.589-39.868-45.778-79.33-68.422-119.104-95.418-.991-190.797.795-286.194-.936-25.123 38.783-46.53 79.956-70.123 119.755 24.384 41.236 47.445 83.221 68.754 118.525 45.29.464 92.747.91 138.04-.361 18.712-35.972 39.31-71.064 59.506-105.998-24.775-.127-49.665-.408-74.415-.319-7.612 13.366-15.07 26.782-22.572 40.22-20.318.477-42.049.906-63.022 1.05-10.18-17.469-20.089-35.146-30.52-52.475 9.857-18.754 20.135-37.248 31.715-54.972 70.54 1.93 141.12-.349 211.685 1.233 9.653 17.826 20.012 35.21 30.21 52.714-25.855 44.281-87.69 149.603-107.09 182.628-70.911.897-148.88 1.543-211.031 2.092-35.649-61.38-70.758-123.076-106.461-184.43 34.755-61.437 71.106-121.95 105.198-183.739 96.068-1.565 192.255.124 288.332-.948-12.672-21.93-25.387-44.086-37.681-65.42-104.11.127-197.827.165-288.38 0-46.904 82.01-96.259 166.834-143.602 248.303C273.791 596.888 326.19 687.811 368.554 762c95.906-.583 191.813-.098 287.736-.072z" fill="#fff" fill-rule="nonzero"/><defs><linearGradient id="_Linear1" x1="0" y1="0" x2="1" y2="0" gradientUnits="userSpaceOnUse" gradientTransform="matrix(951.509 -907.173 948.142 910.394 42.123 970.108)"><stop offset="0" stop-color="#9f1923"/><stop offset="1" stop-color="#e30183"/></linearGradient></defs></svg>