<?xml version="1.0" encoding="UTF-8" standalone="no"?>
<!DOCTYPE svg PUBLIC "-//W3C//DTD SVG 1.1//EN" "http://www.w3.org/Graphics/SVG/1.1/DTD/svg11.dtd">
<svg width="100%" height="100%" viewBox="0 0 1024 1024" version="1.1" xmlns="http://www.w3.org/2000/svg" xmlns:xlink="http://www.w3.org/1999/xlink" xml:space="preserve" xmlns:serif="http://www.serif.com/" style="fill-rule:evenodd;clip-rule:evenodd;stroke-linejoin:round;stroke-miterlimit:2;">
    <g transform="matrix(1.07542,0,0,1.12399,-46.0247,-69.2903)">
        <path d="M983.821,294.744C983.821,171.987 879.656,72.323 751.354,72.323L286.422,72.323C158.12,72.323 53.955,171.987 53.955,294.744L53.955,739.587C53.955,862.345 158.12,962.009 286.422,962.009L751.354,962.009C879.656,962.009 983.821,862.345 983.821,739.587L983.821,294.744Z" style="fill:url(#_Linear1);"/>
    </g>
    <g transform="matrix(4.2525,0,0,4.2525,223.964,223.961)">
        <path d="M101.664,126.506C112.938,106.958 124.191,87.396 135.467,67.848C130.155,58.473 124.702,49.193 119.377,39.84C96.939,39.607 74.51,40.027 52.077,39.62C46.169,48.74 41.135,58.422 35.587,67.781C41.321,77.478 46.744,87.351 51.755,95.653C62.405,95.762 73.565,95.867 84.216,95.568C88.616,87.109 93.46,78.857 98.209,70.642C92.383,70.612 86.53,70.546 80.71,70.567C78.92,73.71 77.166,76.865 75.402,80.025C70.624,80.137 65.514,80.238 60.582,80.272C58.188,76.164 55.858,72.007 53.405,67.932C55.723,63.522 58.14,59.173 60.863,55.005C77.451,55.459 94.048,54.923 110.642,55.295C112.912,59.487 115.348,63.575 117.746,67.691C111.666,78.104 97.125,102.871 92.563,110.637C75.888,110.848 57.553,111 42.938,111.129C34.555,96.695 26.299,82.187 17.903,67.759C26.076,53.312 34.624,39.082 42.641,24.552C65.232,24.184 87.851,24.581 110.444,24.329C107.464,19.172 104.474,13.962 101.583,8.945C77.101,8.975 55.063,8.984 33.769,8.945C22.739,28.23 11.133,48.177 0,67.335C11.717,87.696 24.039,109.077 34.001,126.523C56.554,126.386 79.107,126.5 101.664,126.506Z" style="fill:white;fill-rule:nonzero;"/>
    </g>
    <defs>
        <linearGradient id="_Linear1" x1="0" y1="0" x2="1" y2="0" gradientUnits="userSpaceOnUse" gradientTransform="matrix(951.509,-907.173,948.142,910.394,42.1234,970.108)"><stop offset="0" style="stop-color:rgb(159,25,35);stop-opacity:1"/><stop offset="1" style="stop-color:rgb(227,1,131);stop-opacity:1"/></linearGradient>
    </defs>
</svg>
