<?xml version="1.0" encoding="UTF-8"?>
<svg width="185px" height="46px" viewBox="0 0 185 46" version="1.1" xmlns="http://www.w3.org/2000/svg" xmlns:xlink="http://www.w3.org/1999/xlink">
    <!-- Generator: Sketch 52.5 (67469) - http://www.bohemiancoding.com/sketch -->
    <title>logo-color</title>
    <desc>Created with Sketch.</desc>
    <defs>
        <linearGradient x1="12.7108949%" y1="9.32246089%" x2="96.7906615%" y2="107.054627%" id="linearGradient-1">
            <stop stop-color="#C7017F" offset="0%"></stop>
            <stop stop-color="#FFFFFF" stop-opacity="0" offset="100%"></stop>
        </linearGradient>
        <linearGradient x1="87.6343458%" y1="90.3205196%" x2="2.82476636%" y2="-6.49734889%" id="linearGradient-2">
            <stop stop-color="#C7017F" offset="0%"></stop>
            <stop stop-color="#FFFFFF" stop-opacity="0" offset="100%"></stop>
        </linearGradient>
        <linearGradient x1="8.99867444%" y1="86.7697394%" x2="105.458643%" y2="5.63438351%" id="linearGradient-3">
            <stop stop-color="#009FE3" offset="0%"></stop>
            <stop stop-color="#FFFFFF" stop-opacity="0" offset="100%"></stop>
        </linearGradient>
        <linearGradient x1="92.8119363%" y1="12.2093385%" x2="-2.43766578%" y2="91.2844358%" id="linearGradient-4">
            <stop stop-color="#009FE3" offset="0%"></stop>
            <stop stop-color="#FFFFFF" stop-opacity="0" offset="100%"></stop>
        </linearGradient>
    </defs>
    <g id="logo-color" stroke="none" stroke-width="1" fill="none" fill-rule="evenodd">
        <g id="Group">
            <g>
                <polygon id="Shape" fill="#C7017F" opacity="0.75" points="15.6295964 31.5643636 40.243722 45.8996364 45.6112108 40.48 22.9632287 27.2821818"></polygon>
                <polygon id="Shape" fill="#C7017F" opacity="0.75" points="30.305157 14.5527273 5.68273543 0.225818182 0.306950673 5.64545455 22.9632287 18.8265455"></polygon>
                <polygon id="Shape" fill="url(#linearGradient-1)" points="15.2811659 31.7650909 0.315246637 5.64545455 5.68273543 0.225818182 21.6358744 28.06"></polygon>
                <polygon id="Shape" fill="url(#linearGradient-2)" points="30.6618834 14.352 45.6112108 40.48 40.235426 45.8996364 24.3071749 18.0654545"></polygon>
                <polygon id="Shape" fill="#0095DB" opacity="0.7" points="31.4002242 30.4687273 45.6112108 5.64545455 40.235426 0.225818182 27.1609865 23.0585455"></polygon>
                <polygon id="Shape" fill="#0095DB" opacity="0.7" points="14.5262332 15.6734545 0.315246637 40.48 5.68273543 45.8996364 18.7654709 23.0669091"></polygon>
                <polygon id="Shape" fill="url(#linearGradient-3)" points="31.5993274 30.8116364 5.68273543 45.8996364 0.306950673 40.48 27.9242152 24.3967273"></polygon>
                <polygon id="Shape" fill="url(#linearGradient-4)" points="14.335426 15.3221818 40.243722 0.225818182 45.6112108 5.64545455 18.0188341 21.7203636"></polygon>
            </g>
            <g transform="translate(50.605381, 12.545455)" fill="#00ACE9">
                <path d="M15.3641256,16.0832727 C15.3392377,16.1083636 13.2320628,18.3665455 9.68139013,18.3665455 C5.50852018,18.3665455 2.36434978,14.9792727 2.36434978,10.4796364 C2.36434978,6.13054545 5.47533632,2.852 9.60672646,2.852 C12.9251121,2.852 14.9327354,4.73381818 14.9576233,4.75054545 L15.2894619,5.06836364 L16.4674888,3.60472727 L16.2103139,3.33709091 C16.1190583,3.23672727 13.9123318,0.961818182 9.58183857,0.961818182 C4.33878924,0.961818182 0.389910314,5.06 0.389910314,10.488 C0.389910314,16.0665455 4.38856502,20.2650909 9.68139013,20.2650909 C14.1197309,20.2650909 16.5670404,17.5385455 16.6665919,17.4214545 L16.9154709,17.1370909 L15.6710762,15.7487273 L15.3641256,16.0832727 Z" id="Shape"></path>
                <path d="M28.2643498,0.961818182 C23.0130045,0.961818182 18.8899103,5.14363636 18.8899103,10.488 C18.8899103,15.8825455 23.0959641,20.2650909 28.2643498,20.2650909 C33.4327354,20.2650909 37.6387892,15.8825455 37.6387892,10.488 C37.6387892,5.14363636 33.5156951,0.961818182 28.2643498,0.961818182 Z M28.2643498,18.3665455 C24.1163677,18.3665455 20.8726457,14.904 20.8726457,10.4796364 C20.8726457,6.19745455 24.1163677,2.852 28.2643498,2.852 C32.4123318,2.852 35.6560538,6.20581818 35.6560538,10.4796364 C35.6560538,14.904 32.4123318,18.3665455 28.2643498,18.3665455 Z" id="Shape" fill-rule="nonzero"></path>
                <path d="M54.8197309,15.6818182 C54.8197309,15.8909091 54.8280269,16.1250909 54.8363229,16.3592727 C54.6289238,16.0330909 54.4132287,15.7069091 54.2141256,15.4392727 L44.0017937,1.27127273 L42.3508969,1.27127273 L42.3508969,20.7167273 L44.2838565,19.2112727 L44.2838565,5.54509091 C44.2838565,5.336 44.2755605,5.10181818 44.2672646,4.86763636 C44.4746637,5.19381818 44.6903587,5.52 44.8894619,5.78763636 L55.1017937,19.9556364 L56.7526906,19.9556364 L56.7526906,0.317818182 L54.8197309,1.82327273 L54.8197309,15.6818182 Z" id="Shape"></path>
                <path d="M68.9477578,1.27127273 L62.9663677,1.27127273 L62.9663677,19.964 L68.9477578,19.964 C74.6470852,19.964 78.1894619,16.3843636 78.1894619,10.6218182 C78.1894619,4.85090909 74.6470852,1.27127273 68.9477578,1.27127273 Z M64.8910314,3.13636364 L68.7652466,3.13636364 C73.4275785,3.13636364 76.2067265,5.92981818 76.2067265,10.6134545 C76.2067265,15.2970909 73.4275785,18.0905455 68.7652466,18.0905455 L64.8910314,18.0905455 L64.8910314,3.13636364 Z" id="Shape" fill-rule="nonzero"></path>
                <polygon id="Shape" points="84.4197309 11.4749091 91.2473094 11.4749091 92.7903587 9.60145455 84.4197309 9.60145455 84.4197309 3.13636364 92.7903587 3.13636364 94.3334081 1.27127273 82.4867713 1.27127273 82.4867713 19.9556364 93.2715247 19.9556364 94.814574 18.0905455 84.4197309 18.0905455"></polygon>
                <path d="M111.721749,16.0832727 C111.705157,16.1083636 109.589686,18.3665455 106.039013,18.3665455 C101.866143,18.3665455 98.7219731,14.9792727 98.7219731,10.4796364 C98.7219731,6.13054545 101.83296,2.852 105.96435,2.852 C109.282735,2.852 111.290359,4.73381818 111.315247,4.75054545 L111.647085,5.06836364 L112.825112,3.60472727 L112.567937,3.33709091 C112.476682,3.23672727 110.269955,0.961818182 105.939462,0.961818182 C100.696413,0.961818182 96.7475336,5.06 96.7475336,10.488 C96.7475336,16.0665455 100.746188,20.2650909 106.039013,20.2650909 C110.477354,20.2650909 112.924664,17.5385455 113.024215,17.4214545 L113.273094,17.1370909 L112.0287,15.7487273 L111.721749,16.0832727 Z" id="Shape"></path>
                <path d="M124.621973,0.961818182 C119.370628,0.961818182 115.247534,5.14363636 115.247534,10.488 C115.247534,15.8825455 119.453587,20.2650909 124.621973,20.2650909 C129.790359,20.2650909 133.988117,15.8825455 133.988117,10.488 C133.996413,5.14363636 129.881614,0.961818182 124.621973,0.961818182 Z M124.621973,18.3665455 C120.473991,18.3665455 117.230269,14.904 117.230269,10.4796364 C117.230269,6.19745455 120.473991,2.852 124.621973,2.852 C128.769955,2.852 132.013677,6.20581818 132.013677,10.4796364 C132.013677,14.904 128.769955,18.3665455 124.621973,18.3665455 Z" id="Shape" fill-rule="nonzero"></path>
            </g>
        </g>
    </g>
</svg>