<svg id="Layer_1" data-name="Layer 1" xmlns="http://www.w3.org/2000/svg" viewBox="0 0 777.59 153.18"><defs><style>.cls-1{fill:#a6ce39;}.cls-1,.cls-2{fill-rule:evenodd;}.cls-2{fill:#4c4c4d;}</style></defs><title>eSmart Logo</title><path class="cls-1" d="M64.85,226.11H179.74V341a38.38,38.38,0,0,1-38.3,38.3H26.56V264.4a38.36,38.36,0,0,1,38.29-38.29m68.22,71.76h1.85a2.48,2.48,0,0,1,2.71,2.11v50.1a2.47,2.47,0,0,1-2.71,2.12h-1.85a2.48,2.48,0,0,1-2.72-2.12V300C130.35,298.82,131.57,297.87,133.07,297.87Zm-61.69,9.66h1.84a2.48,2.48,0,0,0,2.72-2.12v-50.1c0-1.16-1.22-2.11-2.72-2.11H71.38c-1.5,0-2.72,1-2.72,2.11v50.1A2.48,2.48,0,0,0,71.38,307.53Zm-29,0H40.53a2.48,2.48,0,0,1-2.72-2.12V285.67a2.48,2.48,0,0,1,2.72-2.12h1.84a2.48,2.48,0,0,1,2.72,2.12v19.74A2.48,2.48,0,0,1,42.37,307.53Zm64.42-7.61V285.67c0-1.17-1.23-2.12-2.72-2.12h-1.85a2.47,2.47,0,0,0-2.71,2.12v34.06a2.48,2.48,0,0,0,2.71,2.12h1.85c1.49,0,2.72-1,2.72-2.12V299.92Zm-49,.51H56c-1.49,0-2.72-.95-2.72-2.12v-32c0-1.17,1.23-2.12,2.72-2.12H57.8c1.49,0,2.72.95,2.72,2.12v32C60.52,299.48,59.29,300.43,57.8,300.43Zm29,0h1.84a2.48,2.48,0,0,0,2.72-2.12v-32a2.48,2.48,0,0,0-2.72-2.12H86.8a2.48,2.48,0,0,0-2.72,2.12v32A2.48,2.48,0,0,0,86.8,300.43Zm77.12-2.56h1.84c1.5,0,2.72.95,2.72,2.11v19.75a2.49,2.49,0,0,1-2.72,2.12h-1.84a2.49,2.49,0,0,1-2.72-2.12V300C161.2,298.82,162.42,297.87,163.92,297.87ZM119.49,305h-1.84a2.48,2.48,0,0,0-2.72,2.12v32a2.48,2.48,0,0,0,2.72,2.12h1.84a2.48,2.48,0,0,0,2.72-2.12v-32A2.48,2.48,0,0,0,119.49,305Zm29,0h1.84a2.48,2.48,0,0,1,2.72,2.12v32a2.48,2.48,0,0,1-2.72,2.12H148.5a2.48,2.48,0,0,1-2.72-2.12v-32A2.48,2.48,0,0,1,148.5,305Z" transform="translate(-26.56 -226.11)"/><path class="cls-2" d="M463.82,370.19a9.61,9.61,0,0,0-.75-3.89,8.66,8.66,0,0,0-2-2.9,9.33,9.33,0,0,0-3-1.84,9.8,9.8,0,0,0-3.58-.65l-13.55-.05a3.93,3.93,0,0,1-2.83-1.09A3.71,3.71,0,0,1,437,357a4.23,4.23,0,0,1,1.11-2.93,3.63,3.63,0,0,1,2.81-1.23h20.31v-4.55h-20.7a8.41,8.41,0,0,0-3.36.68,8.52,8.52,0,0,0-4.57,4.57,8.44,8.44,0,0,0-.68,3.36,9.29,9.29,0,0,0,.72,3.77,8.39,8.39,0,0,0,4.82,4.58,9.71,9.71,0,0,0,3.41.6h13.59a4.63,4.63,0,0,1,3.14,1.26,4,4,0,0,1,1.31,3,4.11,4.11,0,0,1-.36,1.72,4.83,4.83,0,0,1-2.45,2.37,4.27,4.27,0,0,1-1.74.36H433.79v4.7h21a8.71,8.71,0,0,0,3.53-.73,9.55,9.55,0,0,0,2.88-2,9.05,9.05,0,0,0,1.93-2.88,8.83,8.83,0,0,0,.7-3.53m39.81.87,14.07-22.83h-6L501.07,366,490,348.23h-6.05L498.12,371v8.22h5.51Zm66.56-.87a9.61,9.61,0,0,0-.76-3.89,8.52,8.52,0,0,0-2-2.9,9.23,9.23,0,0,0-3-1.84,9.76,9.76,0,0,0-3.58-.65l-13.54-.05a3.92,3.92,0,0,1-2.83-1.09,3.68,3.68,0,0,1-1.14-2.78,4.23,4.23,0,0,1,1.11-2.93,3.63,3.63,0,0,1,2.81-1.23h20.31v-4.55h-20.7a8.6,8.6,0,0,0-8.61,8.61,9.12,9.12,0,0,0,.73,3.77,8.31,8.31,0,0,0,2,2.81,8.55,8.55,0,0,0,2.85,1.77,9.75,9.75,0,0,0,3.41.6H560.8A4.65,4.65,0,0,1,564,367.1a4,4,0,0,1,1.3,3,4.11,4.11,0,0,1-.36,1.72,4.46,4.46,0,0,1-1,1.4,4.92,4.92,0,0,1-1.45,1,4.3,4.3,0,0,1-1.74.36H540.15v4.7h21a8.68,8.68,0,0,0,3.53-.73,9.3,9.3,0,0,0,2.88-2,9.07,9.07,0,0,0,2.64-6.41Zm40-17.26h12.39v-4.7H592.48v4.7h12.29v26.26h5.46Zm42.18,26.26h22.2v-4.45H653.67a3.06,3.06,0,0,1-2-.53,2.3,2.3,0,0,1-.6-1.79v-6.68h21.76v-5H651.06v-5.61a3,3,0,0,1,.48-1.79,1.83,1.83,0,0,1,1.6-.68h21.47v-4.45h-22.2a7.77,7.77,0,0,0-3,.53,5.54,5.54,0,0,0-2,1.46,5.68,5.68,0,0,0-1.16,2.17,9.44,9.44,0,0,0-.37,2.71v17.22a9.65,9.65,0,0,0,.37,2.76,5.61,5.61,0,0,0,1.16,2.17,5.26,5.26,0,0,0,2,1.43A8,8,0,0,0,652.41,379.19Zm90.84,0h5.17V356.5a17.9,17.9,0,0,0-.31-3.53,6,6,0,0,0-1.14-2.58,5.11,5.11,0,0,0-2.32-1.6,11.13,11.13,0,0,0-3.82-.56H699.57v31h5.13V352.88h14.12a2.57,2.57,0,0,1,1.77.48,2.2,2.2,0,0,1,.51,1.65v24.18h5.12V352.88h14.27a3,3,0,0,1,2.15.6,3,3,0,0,1,.61,2.16Zm60.89-9a9.78,9.78,0,0,0-.74-3.89,8.68,8.68,0,0,0-2-2.9,9.23,9.23,0,0,0-3-1.84,9.76,9.76,0,0,0-3.58-.65l-13.54-.05a3.9,3.9,0,0,1-2.83-1.09A3.68,3.68,0,0,1,777.3,357a4.23,4.23,0,0,1,1.11-2.93,3.63,3.63,0,0,1,2.81-1.23h20.31v-4.55h-20.7a8.6,8.6,0,0,0-8.61,8.61,9.12,9.12,0,0,0,.73,3.77,8.31,8.31,0,0,0,2,2.81,8.55,8.55,0,0,0,2.85,1.77,9.75,9.75,0,0,0,3.41.6h13.59a4.59,4.59,0,0,1,3.14,1.26,4,4,0,0,1,1.31,3,4.11,4.11,0,0,1-.36,1.72,4.46,4.46,0,0,1-1,1.4,4.92,4.92,0,0,1-1.45,1,4.32,4.32,0,0,1-1.75.36H774.11v4.7h21a8.71,8.71,0,0,0,3.53-.73,9.3,9.3,0,0,0,2.88-2,9,9,0,0,0,2.63-6.41Z" transform="translate(-26.56 -226.11)"/><path class="cls-2" d="M232.94,290.07h73.81V269.83a46.93,46.93,0,0,0-.78-9.28,13.05,13.05,0,0,0-2.88-6.19,11.82,11.82,0,0,0-5.84-3.44,36.34,36.34,0,0,0-9.62-1H237.16a32.09,32.09,0,0,0-9.63,1.19,12.53,12.53,0,0,0-5.84,3.66,13.39,13.39,0,0,0-2.88,6.18,44.24,44.24,0,0,0-.78,8.93V296a38.68,38.68,0,0,0,.92,9,13.86,13.86,0,0,0,3.09,6.19,13.36,13.36,0,0,0,5.83,3.59,30.68,30.68,0,0,0,9.29,1.19H294V303H240.53q-4.08,0-5.84-1.55t-1.75-5.2Zm59.75-21.93v9H232.94v-9a6.64,6.64,0,0,1,1-4.07c.65-.85,1.92-1.27,3.8-1.27h50.19c1.87,0,3.13.42,3.79,1.27A6.63,6.63,0,0,1,292.69,268.14Zm123.85,21.65a28.08,28.08,0,0,0-2.17-11.32,25,25,0,0,0-5.91-8.43,26.69,26.69,0,0,0-8.64-5.34,28.65,28.65,0,0,0-10.41-1.9L350,262.66a11.4,11.4,0,0,1-8.22-3.17,10.69,10.69,0,0,1-3.3-8.08,12.29,12.29,0,0,1,3.23-8.5,10.49,10.49,0,0,1,8.16-3.59h59V226.11H348.78a24.3,24.3,0,0,0-9.77,2,24.81,24.81,0,0,0-13.28,13.28,24.3,24.3,0,0,0-2,9.77,27.07,27.07,0,0,0,2.1,11,24.92,24.92,0,0,0,5.7,8.15,24.37,24.37,0,0,0,8.29,5.13,28,28,0,0,0,9.91,1.76h39.51a13.49,13.49,0,0,1,9.14,3.66,11.54,11.54,0,0,1,3.79,8.85,11.94,11.94,0,0,1-1.05,5,13,13,0,0,1-2.88,4.08,14.48,14.48,0,0,1-4.22,2.81,12.28,12.28,0,0,1-5.06,1.06H329.24v13.63h61a25.1,25.1,0,0,0,10.27-2.11,27.23,27.23,0,0,0,8.36-5.69,26.28,26.28,0,0,0,5.62-8.37A25.64,25.64,0,0,0,416.54,289.79Zm131.31,26.15h15V267.3q0-9.27-4.22-13.36t-12.09-4.07H436.23v66.07h14.9V267.58q0-4.79,4.08-4.78h33.6c2.72,0,4.07,1.59,4.07,4.78v48.36h14.9V267.58c0-3.19,1.37-4.78,4.09-4.78h31.91a4.42,4.42,0,0,1,3.09.91c.66.61,1,1.9,1,3.87Zm55.82,0H674.1V274.75A50.11,50.11,0,0,0,673,263.29a17.47,17.47,0,0,0-3.73-7.66,15.29,15.29,0,0,0-6.82-4.36,34,34,0,0,0-10.54-1.4h-54.4V262.8h56.09c2.34,0,3.87.34,4.56,1A4.24,4.24,0,0,1,659.2,267v5.2H603.67a23.16,23.16,0,0,0-9.28,1.61,15.22,15.22,0,0,0-5.84,4.36,16.71,16.71,0,0,0-3.09,6.33,30.87,30.87,0,0,0-.91,7.66V296a38,38,0,0,0,.91,8.93,14.31,14.31,0,0,0,3.09,6.18,13.06,13.06,0,0,0,5.84,3.66A30.56,30.56,0,0,0,603.67,315.94ZM659.2,285v11.53a24.08,24.08,0,0,1-.21,3.58,3.44,3.44,0,0,1-.85,2,2.84,2.84,0,0,1-1.75.77,21.89,21.89,0,0,1-2.81.15h-47.1c-2.53,0-4.34-.33-5.41-1s-1.62-2.2-1.62-4.64v-6.74q0-3.66,1.62-4.64c1.07-.66,2.88-1,5.41-1Zm61-22.21H741.3V249.87H719q-11.67,0-16.87,6.46t-5.2,17.58v42h15.74V268.7q0-2,2.39-3.93A8,8,0,0,1,720.21,262.8Zm61.87,53.14h22.06V303H783.9q-4.5,0-5.55-1.05c-.7-.71-1.05-2.14-1.05-4.3V262.8h25V249.87h-25V235.53H762.39v59.74a27.49,27.49,0,0,0,1.62,10.2,16.26,16.26,0,0,0,4.28,6.32,15.1,15.1,0,0,0,6.27,3.24A30.2,30.2,0,0,0,782.08,315.94Z" transform="translate(-26.56 -226.11)"/></svg>