<?xml version="1.0" encoding="UTF-8" standalone="no"?>
<svg
   xmlns:dc="http://purl.org/dc/elements/1.1/"
   xmlns:cc="http://creativecommons.org/ns#"
   xmlns:rdf="http://www.w3.org/1999/02/22-rdf-syntax-ns#"
   xmlns:svg="http://www.w3.org/2000/svg"
   xmlns="http://www.w3.org/2000/svg"
   xmlns:sodipodi="http://sodipodi.sourceforge.net/DTD/sodipodi-0.dtd"
   xmlns:inkscape="http://www.inkscape.org/namespaces/inkscape"
   width="84.862511mm"
   height="21.205021mm"
   viewBox="0 0 84.862511 21.205021"
   version="1.1"
   id="svg8"
   inkscape:version="1.0.2-2 (e86c870879, 2021-01-15)"
   sodipodi:docname="octopus-deploy.svg">
  <defs
     id="defs2">
    <style
       id="style51">.cls-1{fill:#2f93e0;}.cls-2{fill:#0f2535;}</style>
  </defs>
  <sodipodi:namedview
     id="base"
     pagecolor="#ffffff"
     bordercolor="#666666"
     borderopacity="1.0"
     inkscape:pageopacity="0.0"
     inkscape:pageshadow="2"
     inkscape:zoom="0.98994949"
     inkscape:cx="388.66142"
     inkscape:cy="33.146902"
     inkscape:document-units="mm"
     inkscape:current-layer="layer1"
     inkscape:document-rotation="0"
     showgrid="false"
     fit-margin-top="3"
     fit-margin-left="0"
     fit-margin-right="0"
     fit-margin-bottom="0"
     lock-margins="false"
     inkscape:window-width="1267"
     inkscape:window-height="960"
     inkscape:window-x="147"
     inkscape:window-y="0"
     inkscape:window-maximized="0" />
  <metadata
     id="metadata5">
    <rdf:RDF>
      <cc:Work
         rdf:about="">
        <dc:format>image/svg+xml</dc:format>
        <dc:type
           rdf:resource="http://purl.org/dc/dcmitype/StillImage" />
        <dc:title></dc:title>
      </cc:Work>
    </rdf:RDF>
  </metadata>
  <g
     inkscape:label="Layer 1"
     inkscape:groupmode="layer"
     id="layer1"
     transform="translate(-3,-3)">
    <g
       id="Logos"
       transform="matrix(0.26458333,0,0,0.26458333,0.6005346,0.61264226)">
      <path
         class="cls-1"
         d="m 20.72,65.91 c 4.89,-3.15 10.64,-8.56 8.46,-14.93 -1.19,-3.47 -2.84,-6.44 -3.06,-10.19 a 23,23 0 0 1 1.4,-9.34 C 31.91,19.67 45,14.09 56.75,17.64 c 10.92,3.28 18.44,16 13.91,27 C 68.05,51 66.88,56 72.7,60.91 c 1.58,1.35 5.42,3.36 5.4,5.75 0,3.12 -6.15,-0.67 -6.83,-1.21 0.78,1.36 8.51,9.42 3.59,10 -4.53,0.53 -8.53,-5.79 -11.25,-8.51 -4.57,-4.56 -3.77,5.53 -3.79,7.61 0,3.29 -2.36,10 -6.53,5.62 -3.44,-3.59 -2.14,-9.3 -4.54,-13.28 -2.62,-4.37 -7,4.36 -8.07,6 -1.22,1.79 -7.32,10.42 -9.74,5.82 -2,-3.73 1.18,-9.59 2.72,-13 -0.56,1.22 -4.56,3 -5.73,3.63 a 15.58,15.58 0 0 1 -8.28,1.91 c -6.14,-0.45 -1.43,-3.71 1.07,-5.32 z"
         id="path57" />
      <path
         class="cls-2"
         d="m 108.9,47.51 a 16.24,16.24 0 0 1 -1.3,6.72 9.81,9.81 0 0 1 -3.67,4.39 10.14,10.14 0 0 1 -14.76,-4.35 15.72,15.72 0 0 1 -1.36,-6.53 v -1.89 a 16,16 0 0 1 1.32,-6.68 9.7,9.7 0 0 1 9.21,-6 10.19,10.19 0 0 1 5.56,1.52 9.83,9.83 0 0 1 3.7,4.42 16.31,16.31 0 0 1 1.3,6.72 z m -3.44,-1.7 c 0,-3.1 -0.63,-5.49 -1.88,-7.15 a 6.15,6.15 0 0 0 -5.24,-2.5 6.08,6.08 0 0 0 -5.15,2.5 11.49,11.49 0 0 0 -1.94,6.92 v 1.93 a 11.74,11.74 0 0 0 1.9,7.1 6.66,6.66 0 0 0 10.42,0.14 q 1.83,-2.43 1.89,-7 z"
         id="path59" />
      <path
         class="cls-2"
         d="m 119.75,57.41 a 4.81,4.81 0 0 0 3.12,-1.08 3.76,3.76 0 0 0 1.47,-2.7 h 3.16 a 6,6 0 0 1 -1.16,3.19 7.67,7.67 0 0 1 -2.83,2.41 8.23,8.23 0 0 1 -3.76,0.9 8,8 0 0 1 -6.33,-2.66 10.6,10.6 0 0 1 -2.35,-7.26 v -0.56 a 11.68,11.68 0 0 1 1.05,-5.06 7.87,7.87 0 0 1 3,-3.44 8.46,8.46 0 0 1 4.61,-1.22 7.81,7.81 0 0 1 5.45,2 7,7 0 0 1 2.32,5.07 h -3.16 a 4.54,4.54 0 0 0 -1.43,-3.1 4.47,4.47 0 0 0 -3.18,-1.22 4.65,4.65 0 0 0 -3.93,1.83 8.59,8.59 0 0 0 -1.4,5.29 v 0.63 a 8.43,8.43 0 0 0 1.39,5.18 4.7,4.7 0 0 0 3.96,1.8 z"
         id="path61" />
      <path
         class="cls-2"
         d="m 134.14,35.57 v 4.72 h 3.64 v 2.57 h -3.64 V 55 a 2.74,2.74 0 0 0 0.48,1.76 2.06,2.06 0 0 0 1.66,0.58 8.45,8.45 0 0 0 1.59,-0.21 v 2.68 a 9.69,9.69 0 0 1 -2.56,0.36 4.16,4.16 0 0 1 -3.37,-1.35 5.79,5.79 0 0 1 -1.13,-3.84 V 42.86 h -3.55 v -2.57 h 3.55 v -4.72 z"
         id="path63" />
      <path
         class="cls-2"
         d="m 138.8,49.85 a 11.5,11.5 0 0 1 1.13,-5.15 8.36,8.36 0 0 1 3.13,-3.53 8.5,8.5 0 0 1 4.58,-1.24 8.21,8.21 0 0 1 6.44,2.75 10.6,10.6 0 0 1 2.46,7.32 v 0.23 a 11.72,11.72 0 0 1 -1.09,5.11 8.29,8.29 0 0 1 -3.12,3.52 8.62,8.62 0 0 1 -4.65,1.26 8.19,8.19 0 0 1 -6.42,-2.76 10.51,10.51 0 0 1 -2.46,-7.29 z m 3.35,0.39 a 8.37,8.37 0 0 0 1.5,5.21 5.1,5.1 0 0 0 8.06,0 9.09,9.09 0 0 0 1.5,-5.57 8.3,8.3 0 0 0 -1.53,-5.2 4.84,4.84 0 0 0 -4,-2 4.8,4.8 0 0 0 -4,2 9,9 0 0 0 -1.53,5.56 z"
         id="path65" />
      <path
         class="cls-2"
         d="m 175.55,50.24 a 11.64,11.64 0 0 1 -2,7.17 6.52,6.52 0 0 1 -5.55,2.72 7.15,7.15 0 0 1 -5.58,-2.25 v 9.38 h -3.33 v -27 h 3 l 0.17,2.16 a 6.85,6.85 0 0 1 5.74,-2.49 6.67,6.67 0 0 1 5.56,2.64 c 1.36,1.77 2,4.22 2,7.37 z m -3.33,-0.37 a 8.59,8.59 0 0 0 -1.41,-5.21 4.52,4.52 0 0 0 -3.81,-1.91 4.9,4.9 0 0 0 -4.54,2.69 v 9.31 a 4.92,4.92 0 0 0 4.54,2.66 4.48,4.48 0 0 0 3.8,-1.9 9.35,9.35 0 0 0 1.42,-5.64 z"
         id="path67" />
      <path
         class="cls-2"
         d="m 190.19,57.84 a 7.07,7.07 0 0 1 -5.71,2.29 6.06,6.06 0 0 1 -4.75,-1.81 A 7.86,7.86 0 0 1 178.09,53 V 40.29 h 3.33 v 12.58 c 0,3 1.2,4.43 3.6,4.43 2.4,0 4.24,-0.95 5.08,-2.84 V 40.29 h 3.33 v 19.48 h -3.17 z"
         id="path69" />
      <path
         class="cls-2"
         d="m 208.21,54.6 a 2.46,2.46 0 0 0 -1,-2.1 10,10 0 0 0 -3.55,-1.28 17,17 0 0 1 -4,-1.3 5.7,5.7 0 0 1 -2.2,-1.8 4.36,4.36 0 0 1 -0.71,-2.49 5.07,5.07 0 0 1 2,-4.05 7.91,7.91 0 0 1 5.17,-1.65 8.16,8.16 0 0 1 5.38,1.71 5.44,5.44 0 0 1 2.06,4.36 H 208 a 3,3 0 0 0 -1.16,-2.36 4.35,4.35 0 0 0 -2.93,-1 4.52,4.52 0 0 0 -2.84,0.8 2.46,2.46 0 0 0 -1,2.07 2,2 0 0 0 1,1.81 11.75,11.75 0 0 0 3.44,1.18 17.76,17.76 0 0 1 4.05,1.33 5.9,5.9 0 0 1 2.29,1.86 4.58,4.58 0 0 1 0.75,2.66 5,5 0 0 1 -2.09,4.18 8.76,8.76 0 0 1 -5.51,1.6 9.84,9.84 0 0 1 -4.14,-0.83 6.73,6.73 0 0 1 -2.79,-2.3 5.57,5.57 0 0 1 -1,-3.22 h 3.34 a 3.43,3.43 0 0 0 1.34,2.66 5.21,5.21 0 0 0 3.3,1 5.41,5.41 0 0 0 3,-0.76 2.37,2.37 0 0 0 1.16,-2.08 z"
         id="path71" />
      <path
         class="cls-2"
         d="M 222.29,59.77 V 33.55 h 7.4 a 12,12 0 0 1 6.05,1.51 10.31,10.31 0 0 1 4.06,4.31 14,14 0 0 1 1.45,6.41 v 1.67 a 14.09,14.09 0 0 1 -1.43,6.5 10.15,10.15 0 0 1 -4.09,4.29 12.59,12.59 0 0 1 -6.19,1.53 z m 3.45,-23.39 v 20.56 h 3.64 a 7.92,7.92 0 0 0 6.22,-2.48 q 2.24,-2.49 2.23,-7.09 v -1.53 a 10.45,10.45 0 0 0 -2.1,-7 7.45,7.45 0 0 0 -5.95,-2.51 z"
         id="path73" />
      <path
         class="cls-2"
         d="m 252.41,60.13 a 8.54,8.54 0 0 1 -6.45,-2.6 9.7,9.7 0 0 1 -2.48,-7 V 50 a 11.66,11.66 0 0 1 1.11,-5.18 8.63,8.63 0 0 1 3.09,-3.57 7.88,7.88 0 0 1 4.32,-1.32 7.28,7.28 0 0 1 5.9,2.5 q 2.1,2.51 2.1,7.17 V 51 h -13.2 a 7,7 0 0 0 1.68,4.66 5.31,5.31 0 0 0 4.1,1.77 5.81,5.81 0 0 0 3,-0.72 7.59,7.59 0 0 0 2.14,-1.91 l 2,1.59 a 8.19,8.19 0 0 1 -7.31,3.74 z M 252,42.66 a 4.44,4.44 0 0 0 -3.39,1.47 7.11,7.11 0 0 0 -1.69,4.12 h 9.76 V 48 A 6.34,6.34 0 0 0 255.31,44.07 4.19,4.19 0 0 0 252,42.66 Z"
         id="path75" />
      <path
         class="cls-2"
         d="m 278.7,50.24 a 11.64,11.64 0 0 1 -2,7.17 6.52,6.52 0 0 1 -5.51,2.72 7.15,7.15 0 0 1 -5.58,-2.25 v 9.38 h -3.33 v -27 h 3 l 0.17,2.16 a 6.85,6.85 0 0 1 5.65,-2.52 6.64,6.64 0 0 1 5.55,2.64 c 1.37,1.77 2.05,4.22 2.05,7.37 z m -3.33,-0.37 a 8.59,8.59 0 0 0 -1.37,-5.21 4.52,4.52 0 0 0 -3.85,-1.91 4.9,4.9 0 0 0 -4.54,2.69 v 9.31 a 4.91,4.91 0 0 0 4.57,2.66 4.49,4.49 0 0 0 3.81,-1.9 9.35,9.35 0 0 0 1.38,-5.64 z"
         id="path77" />
      <path
         class="cls-2"
         d="m 284.93,59.77 h -3.34 V 32.11 h 3.34 z"
         id="path79" />
      <path
         class="cls-2"
         d="m 287.75,49.85 a 11.5,11.5 0 0 1 1.13,-5.15 8.36,8.36 0 0 1 3.12,-3.53 8.52,8.52 0 0 1 4.58,-1.24 8.2,8.2 0 0 1 6.42,2.75 10.6,10.6 0 0 1 2.49,7.32 v 0.23 a 11.72,11.72 0 0 1 -1.09,5.11 8.29,8.29 0 0 1 -3.12,3.52 8.62,8.62 0 0 1 -4.65,1.26 8.19,8.19 0 0 1 -6.42,-2.76 10.51,10.51 0 0 1 -2.46,-7.29 z m 3.35,0.39 a 8.37,8.37 0 0 0 1.5,5.21 4.83,4.83 0 0 0 4,2 4.76,4.76 0 0 0 4,-2 9.09,9.09 0 0 0 1.5,-5.57 8.3,8.3 0 0 0 -1.53,-5.2 4.84,4.84 0 0 0 -4,-2 4.8,4.8 0 0 0 -4,2 9,9 0 0 0 -1.47,5.56 z"
         id="path81" />
      <path
         class="cls-2"
         d="m 314.15,54.89 4.53,-14.6 h 3.57 l -7.83,22.49 c -1.22,3.24 -3.14,4.86 -5.78,4.86 l -0.63,-0.06 -1.25,-0.23 v -2.7 l 0.9,0.07 a 4.48,4.48 0 0 0 2.64,-0.72 5,5 0 0 0 1.56,-2.51 l 0.74,-2 -7,-19.26 h 3.63 z"
         id="path83" />
    </g>
  </g>
</svg>
