<svg viewBox="0 0 10417 1605" xmlns="http://www.w3.org/2000/svg" xml:space="preserve" style="fill-rule:evenodd;clip-rule:evenodd;stroke-linejoin:round;stroke-miterlimit:2"><path d="M8762.83 0h410.167c.375 105.792-.375 211.542.375 317.333-30 1.792-60.042.542-90.042.875-106.875-.166-213.791.417-320.666-.291.041-105.959-.25-211.959.166-317.917ZM0 5.125c237.5.292 475 .042 712.5.125 153.958-2 314.958 15.417 450.333 94.375 64.167 37.5 120.125 90 158.75 153.708 59.459 96.917 77.292 213.75 70.75 325.834-3.583 72.875-17.5 145.75-46.041 213.125-29.959 71-78.334 134.333-139.75 181.041-48.542 37.459-104.459 64.584-162.542 83.584-86.542 28.625-178.042 39.166-268.833 41.458-93.584.875-187.209-.208-280.834.542-.541 155.75-.458 311.5-.041 467.25-164.75.833-329.542.083-494.292.375V5.122m494.75 379.042c-1.333 20.541-.583 41.125-.708 61.666.583 91.334-1.167 182.709.875 274 71.166-.791 142.375.084 213.541-.5C762 717.955 817.5 712.039 865.5 686.497c32.542-16.958 58.458-47.167 67.583-83.042 10.792-42 7.875-88.916-13.416-127.25-18.792-33.875-52.542-56.583-88.084-70-47.25-17.708-98.208-21.875-148.25-21.791-62.833-.167-125.708.25-188.583-.25ZM5329.17 440.958c81.791-26.791 168.5-34.291 254.166-34.166 95.042.333 190.792 7.416 283.125 31.291 73.709 19.75 146.709 51.875 200.875 107.084 63.875 63.416 90.625 157.166 83.834 245.541-124.5-1.041-249.042.292-373.542-.666-1.042-31.834-16.5-61.25-36.625-85.209-27.208-29.75-68.583-39.916-107.458-42.166-36.417-1.834-74.459-1.917-108.667 12.25-19.167 7.666-36 24.458-37.833 45.791-3.584 23.459 10.458 45.917 29 59.125 30.333 21.875 66.833 32.5 102.416 42.584 87.5 22.75 177 37.25 263.875 62.333 69.417 20.083 138.75 46.167 196.5 90.667 43.167 33.125 77.459 78.916 92.834 131.458 14.666 49.042 13.458 101.208 7.541 151.583-8.708 71.917-36.833 143-87.208 195.959-42.333 45.666-97.75 77.25-155.667 98.791-90.333 33.042-186.875 43.542-282.375 48.209-44.583 4.25-89.083-1.042-133.333-5.709-79.208-9.833-157.5-30.666-229.083-66.458-71.292-35.25-136.209-86.583-179.459-154-39.5-60.75-57.708-133.458-57.958-205.5 133.583-.292 267.167-.583 400.75.167 2.417 38.458 12.333 76.791 31.5 110.375 13.458 24.333 39.708 36.916 63.583 48.833 42.917 21.125 92.917 19.708 138.667 9.875 27.917-6.417 56.25-22.125 67.75-49.75 11.25-27.458 12.625-63.458-9.625-85.917-22.958-23.458-55.375-33.75-86.042-42.833-70.416-19.25-143-28.167-214.166-43.875-79.459-17-160.084-39.042-228.292-84.75-37.042-24.833-69.125-57.792-90.167-97.292-26.875-48.375-35.5-104.75-34.083-159.5.958-73.166 17.167-148.375 59.417-209.25 41.25-61.083 106.625-102.083 175.75-124.875ZM3130.67 476.583c67.833-35.791 142.916-58.583 219.458-64.666 75-3.459 152.375 5.541 220.958 37.708 63 28.875 114.084 80.708 145.167 142.333 47.875 94.834 58.583 203.25 58.75 308.042-.083 220.667.167 441.375-.125 662.042-148.375-.209-296.75 0-445.125-.125-.083-180.375-.042-360.709-.042-541.084-.375-51.708 2.084-104-8.75-154.875-6.916-30.958-20.583-62.416-46.541-82.041-26-19.334-59.542-25.375-91.334-24.25-41.416 1.083-80.791 22.375-107.208 53.833-35.792 42.25-54.875 97.833-54.958 153.083-.167 198.459.291 396.959-.209 595.459-141.166-.334-282.333.25-423.5-.292.542-367.417.375-734.875.042-1102.29 133.875-.166 267.708.042 401.542-.083 5.666 42.875 11.458 85.792 17.125 128.667 22.25-50.459 67.25-85.959 114.75-111.459ZM8175.12 425.292c82.542-20.917 170.75-18.584 252.458 5.208 68.417 19.542 130.417 62.042 171.125 120.708 42.125 59.875 63.667 131.625 74.834 203.334 8.166 52.208 10.125 105.208 9.875 157.958-.084 218 .208 436-.167 654-148.375-.083-296.792.25-445.167-.167.209-176.291 0-352.541.084-528.833-.542-48.75 2-97.792-4.875-146.208-5.375-35.542-16.709-72.5-43.167-98.125-24.583-24.5-60.542-33.334-94.25-33.584-36.167-1.291-71.875 13.75-97.833 38.584-45.917 44.416-69.459 109.291-68.75 172.625-.042 198.583.208 397.125-.125 595.708-142.625-.208-285.25.5-427.875-.333.5-368.917.291-737.792.083-1106.71 135.333-.208 270.625.084 405.917-.125 5.416 42.709 6.625 85.959 14.166 128.334 17.709-41.834 53.5-72.25 91-96.084 50-31 105.584-52.416 162.667-66.291ZM9439.46 543.708c107.625-88.041 247.625-130.708 385.584-132.625 95.833-1.083 192.625 13.084 281.958 48.584 104.375 41.125 197.917 114.958 252.25 214.208 36.083 64.792 53.917 139.25 52.917 213.333-130.625.292-261.25.125-391.875.084-.792-19.417-1.709-39.167-8.417-57.584-10.625-29.541-30.75-54.541-52.792-76.333-22.708-22.125-51.833-39.583-84-41.875-42.791-2.708-87.208 7.625-122.166 33.125-39.084 28.083-64.125 71.625-78.625 116.792-19.959 64.125-24.334 132.583-17.584 199.208 8.084 66.25 30.167 135 80.292 181.667 57.208 54.833 155.458 62.958 218.208 12.916 48.125-38.083 72-100.125 73.584-160.333 129.291-.708 258.583-.292 387.875-.208v44.458c-6.542 89.5-35.792 178.042-89.709 250.25-76.166 104.75-197.916 168.625-323.416 192.458-146.834 28.042-304.792 21.167-441.375-43.833-107.917-50.417-198.167-137.542-251.792-243.958-67.792-132.292-80.458-287.792-54-432.625 22.208-122.625 85.292-239.209 183.083-317.709ZM1633.83 466.833c80.5-32 167.417-43.791 253.375-48.916 106.209-5.334 214.25-3.334 317.75 23.5 70.375 18.958 139.209 51.875 189.292 106.041 49.125 51.875 76.625 120.542 89.125 190.084 10.5 56.25 12.792 113.666 12.667 170.791.041 168.084-.084 336.125.041 504.167.292 35.417 1.959 72.875 20.959 103.917 8.125 16.125 23.625 27.5 29.625 44.791-140.292 3.209-280.709 3.334-421 5.125-14.334-30.708-29.25-61.083-43.584-91.75-38.625 28.917-77.791 58.25-123.208 75.875-96.167 39.459-203.25 38.417-304.667 24.542-76.833-11.333-156.041-35.75-212.458-91.75-52.292-50.667-75.958-124.333-78.333-195.75-3.917-76.375 11-157.542 59.708-218.542 49.5-64.333 126.125-100.208 202.208-122.625 55.875-16.875 113.542-26.291 170.875-36.5 62.875-10.958 126.667-19.125 187.625-38.791 30.584-10.542 62.167-24.125 83-49.959 19-23.458 23.75-57.083 14.25-85.416-8-23-30.958-36.334-53.625-41.334-35-7.666-71.125-5.583-106.708-4.625-32.875 1.625-68.417 10.125-91 35.875-27.083 30.875-34.625 73.25-38.958 112.792-123.5.833-247.042.5-370.542.167-.042-83.542 9.083-171.25 53.5-244.042 36.167-59.958 95.792-102.208 160.083-127.667m259.792 656.667c-38.375 11.542-78 22.958-110.875 46.708-20.375 14.417-35.167 37.667-36.083 63-1.459 30.375 7.416 63.917 32.458 83.209 28.292 21.833 65.833 25.208 100.333 24.875 56.834-.542 111.25-29.5 146.917-73.167 47.75-57.833 67.833-134.792 64.292-208.875-63.042 28.917-130.584 45.417-197.042 64.25ZM4300.21 424.167c70.417-8 141.459-10.084 212.25-7.625 72.459 2.958 145.25 12.666 214.084 36.208 62.125 21.333 120.791 56.583 162.75 107.833 49.208 58.834 72.458 134.667 82.208 209.584 11.833 98.416 6.25 197.666 7.583 296.5.459 125.125-1.041 250.291.75 375.416.959 30.959 9.459 62.125 28.334 87.084 7.583 10.333 17.083 19.541 21.625 31.833-138.875 3.75-277.875 3.25-416.792 5.458-14.458-30.625-29.167-61.125-43.542-91.791-38.083 28-76.458 56.625-120.791 74.125-69.084 29.083-145.209 37.75-219.625 34.208-71.459-3.167-143.75-12.417-210.584-39.167-56.5-23-107.458-63.041-136.541-117.375-35.417-65.125-41.209-142.208-32.959-214.666 7.792-69.25 40.209-136.334 93.792-181.584 55.958-48.708 127.292-74.541 198.125-92.875 76.875-18.75 155.375-29.541 233.208-43.5 45.834-8.833 92.417-18.291 134.542-39.083 26.875-13 52.042-34.292 60.625-63.875 8.292-27.833 4.458-63.125-20.917-81.042-32.166-22.25-73.458-20.791-110.833-21.041-39.5.166-83.917 1.666-114.792 29.791-32.333 30.667-39.791 77.417-44.625 119.667-123.541 1.083-247.083.583-370.625.25.334-77.792 6.959-158.833 43.75-228.917 27.834-54.541 75.292-97.125 129.25-125 68-35.416 144.209-51.208 219.75-60.416m116.459 688.958c-46.75 13.458-95.125 24.542-137.375 49.5-22.667 13.375-42.292 35.292-44.834 62.458-3 32.959 3.917 70.917 31.584 92.25 27.375 20.709 63.375 23.792 96.541 24.084 55.209.458 108.417-26.667 144.459-67.834 51.583-57.958 74.458-137.625 71.041-214.333-51.875 23.333-106.541 39.458-161.416 53.875ZM6768.58 423.292c152.875-14.667 315.167 16.25 439.834 109.708 119.791 87.917 194.875 228.417 214.958 374.375 22.625 158.083-4.667 328.125-97.042 460.833-67.333 98.209-169.958 170.084-283.625 204.375-50.416 15.542-102.791 24.084-155.375 27.792-54.125 6.083-108.666-.208-162.333-7.667-133.417-20-261.75-85.5-348-190.5-95.167-113.166-136.583-264.25-132.125-410.458 2.833-149.417 57.708-300.75 165.125-406.792 94.292-95.916 225.667-149.708 358.583-161.666m33 287.333c-35.875 8.083-67.625 30.542-89.458 59.833-22.958 30.625-37.458 66.75-47.292 103.5-21.333 83.292-24.833 171.5-6.75 255.709 12.5 57.458 36.084 116.5 82.959 154.458 56.041 46.25 145.458 47.625 200.5-.958 38.875-33.584 59.791-82.834 72.208-131.625 19.917-84.375 20.958-173.209 4.542-258.292-11.875-56.542-33.75-115.042-79.459-152.917-37.625-31.416-90.166-40-137.25-29.708ZM8762.88 459.292c136.833.375 273.625-.167 410.458.25-.375 368.833-.541 737.708.084 1106.54-136.875.959-273.792.25-410.709.334 0-369.042-.291-738.084.167-1107.12Z" style="fill:#001eaa;fill-rule:nonzero"/></svg>