<svg version="1.1" id="Layer_1" xmlns="http://www.w3.org/2000/svg" xmlns:xlink="http://www.w3.org/1999/xlink" x="0px" y="0px" viewBox="0 0 540 86.2" style="enable-background:new 0 0 540 86.2;" xml:space="preserve">
<style type="text/css">
	.st0b{fill:#582260;}
	.st1b{fill:#BF2827;}
	.st2b{fill:url(#SVGID_1b_);}
	.st3b{fill:url(#SVGID_2b_);}
	.st4b{fill:url(#SVGID_3b_);}
	.st5b{fill:url(#SVGID_4b_);}
	.st6b{fill:#FFFFFF;}
</style>
<g>
	<path class="st0b" d="M137.4,50.74c0,11.26-9.21,18.13-22.81,18.13h-5.85v16.45H93.98V32.69h20.39
		C127.89,32.69,137.4,39.49,137.4,50.74z M122.41,50.89c0-3.36-2.56-6.07-8.99-6.07h-4.82v11.91h4.68
		C119.71,56.74,122.41,54.25,122.41,50.89z"></path>
	<path class="st0b" d="M181.84,32.69v12.35h-23.61v7.6h20.69V65h-20.69v7.97h24.41v12.35h-39.18V32.69H181.84z"></path>
	<path class="st0b" d="M218.54,77.86h-15.72l-2.41,7.46h-15.57l20.39-52.78h11.7l20.39,52.78h-16.3L218.54,77.86z M210.57,53.45
		l-4.82,13.45h9.79L210.57,53.45z"></path>
	<path class="st0b" d="M261.74,64.49l-4.97,5.78v15.06H242V32.69h14.77v20.39l16.67-20.39h16.08l-18.13,21.12l20.03,31.51h-16.67
		L261.74,64.49z"></path>
</g>
<g>
	<path class="st1b" d="M314.64,32.69v52.63h-14.77V32.69H314.64z"></path>
	<path class="st1b" d="M373.41,32.69v52.7H361.2l-17.47-19.52l-5.63-6.94l0.07,7.24v19.15h-14.18V32.54h11.33l18.71,21.86l5.26,6.8
		l-0.07-7.02V32.69H373.41z"></path>
	<path class="st1b" d="M428.23,70.41c0,8.84-8.26,14.91-22.15,14.91h-23.32V32.69h21.56c14.77,0,21.71,5.85,21.71,13.67
		c0,4.82-3.14,9.43-9.65,11.4v0.15C423.84,59.22,428.23,64.85,428.23,70.41z M397.31,43.65v9.94h5.41c6.8,0,8.55-2.12,8.55-4.97
		c0-2.85-1.75-4.97-8.55-4.97H397.31z M413.46,68.95c0-2.92-2.27-5.34-8.62-5.34h-7.53v10.75h7.53
		C411.2,74.35,413.46,71.87,413.46,68.95z"></path>
	<path class="st1b" d="M488.9,59c0,16.45-12.28,27.19-27.78,27.19c-15.5,0-27.78-10.75-27.78-27.19c0-16.45,12.28-27.19,27.78-27.19
		C476.62,31.81,488.9,42.56,488.9,59z M473.84,59c0-8.41-5.26-14.03-12.72-14.03c-7.46,0-12.72,5.63-12.72,14.03
		c0,8.41,5.26,14.03,12.72,14.03C468.58,73.04,473.84,67.41,473.84,59z"></path>
	<path class="st1b" d="M523.48,85.32l-9.36-14.99l-9.94,14.99h-15.79l17.32-26.02l-16.59-26.61h16.52l8.77,14.55l9.06-14.55h15.79
		l-16.45,25.66L540,85.32H523.48z"></path>
</g>
<g>
	<g>
		<linearGradient id="SVGID_1b_" gradientUnits="userSpaceOnUse" x1="125.8335" y1="59.3513" x2="-8.6853" y2="59.3513">
			<stop offset="0" style="stop-color:#FAC017"></stop>
			<stop offset="0.3094" style="stop-color:#EF453B"></stop>
			<stop offset="1" style="stop-color:#904299"></stop>
		</linearGradient>
		<path class="st2b" d="M76.67,32.51H3.87C1.74,32.51,0,34.25,0,36.37v45.96c0,2.13,1.74,3.87,3.87,3.87h72.8
			c2.13,0,3.87-1.74,3.87-3.87V36.37C80.54,34.25,78.8,32.51,76.67,32.51z"></path>
	</g>
	<linearGradient id="SVGID_2b_" gradientUnits="userSpaceOnUse" x1="-36.0849" y1="73.4837" x2="75.3323" y2="73.4837">
		<stop offset="0" style="stop-color:#FAC017"></stop>
		<stop offset="0.3094" style="stop-color:#EF453B"></stop>
		<stop offset="1" style="stop-color:#904299"></stop>
	</linearGradient>
	<polygon class="st3b" points="76.46,86.2 40.27,60.77 4.08,86.2 	"></polygon>
	<linearGradient id="SVGID_3b_" gradientUnits="userSpaceOnUse" x1="40.2677" y1="-30.042" x2="40.2677" y2="114.9555">
		<stop offset="0" style="stop-color:#FAC017"></stop>
		<stop offset="0.3094" style="stop-color:#EF453B"></stop>
		<stop offset="1" style="stop-color:#904299"></stop>
	</linearGradient>
	<polygon class="st4b" points="79,33.54 79.21,33.54 79.11,33.47 79.12,33.46 79.1,33.46 40.27,3.75 1.44,33.46 1.41,33.46 
		1.43,33.47 1.32,33.54 1.53,33.54 40.27,60.76 	"></polygon>
	<g>
		<linearGradient id="SVGID_4b_" gradientUnits="userSpaceOnUse" x1="40.2677" y1="17.3024" x2="40.2677" y2="165.9556">
			<stop offset="0" style="stop-color:#FAC017"></stop>
			<stop offset="0.3094" style="stop-color:#EF453B"></stop>
			<stop offset="1" style="stop-color:#904299"></stop>
		</linearGradient>
		<polygon class="st5b" points="75.52,36 46.76,0 28.05,25.26 21.42,15.38 5.01,35.98 40.28,60.76 		"></polygon>
		<polygon class="st6b" points="12.11,29.57 21.17,18.01 26.33,25.66 22.42,23.17 20.11,29.03 19.04,23.35 		"></polygon>
		<polygon class="st6b" points="33.44,20.68 46.77,2.73 61.17,20.68 52.46,14.1 52.99,19.79 47.84,14.1 44.28,21.04 42.68,13.92 		
			"></polygon>
	</g>
</g>
</svg>