<svg viewBox="0 0 168 32" fill="none" xmlns="http://www.w3.org/2000/svg"><g clip-path="url(#clip0)"><path d="M31.98 20.42h5.528v3.477c0 1.75 0 3.498 2.678 3.498 2.72 0 2.72-1.792 2.72-4.47 0-2.116-.43-3.023-1.878-3.995l-5.268-3.54c-2.807-1.922-3.584-3.995-3.584-7.061 0-2.332.216-4.6 2.16-6.22 1.1-.928 3.152-1.791 6.045-1.791 3.24 0 7.666 1.317 7.666 6.478v2.98h-5.485v-2.16c0-1.447 0-3.066-2.418-3.066-1.49 0-2.548.561-2.548 2.98 0 2.505.561 3.066 1.749 3.865l5.442 3.693c1.058.755 2.224 1.835 2.85 2.936.799 1.36.799 2.29.799 4.708 0 2.678 0 4.34-.972 5.917-1.663 2.677-5.096 2.98-7.147 2.98-4.73 0-8.336-1.793-8.336-6.846V20.42zM54.503.943h14.554v4.6h-9.026v7.039h8.465v4.556H60.03v9.242h9.393v4.621h-14.92V.943zm20.903.021h5.484v30.037h-5.484V.964zM86.764 20.42h5.528v3.477c0 1.75 0 3.498 2.678 3.498 2.72 0 2.72-1.792 2.72-4.47 0-2.116-.431-3.023-1.878-3.995l-5.27-3.541c-2.806-1.922-3.562-3.995-3.562-7.061 0-2.332.216-4.6 2.16-6.22 1.1-.928 3.152-1.791 6.046-1.791 3.239 0 7.665 1.317 7.665 6.478v2.98h-5.484v-2.16c0-1.447 0-3.066-2.44-3.066-1.49 0-2.549.561-2.549 2.98 0 2.505.54 3.066 1.75 3.865l5.441 3.693c1.058.755 2.203 1.835 2.851 2.936.799 1.36.799 2.29.799 4.708 0 2.678 0 4.34-.972 5.917-1.663 2.677-5.096 2.98-7.148 2.98-4.729 0-8.335-1.793-8.335-6.846V20.42zM109.265.986h8.983l3.563 21.01 3.541-21.01h8.897V31h-5.485l.497-26.02L124.424 31h-5.183l-4.945-26.02.432 26.02h-5.463V.986zm30.944 0h5.485V31h-5.485V.986zm22.306 10.97V8.134c0-2.246-.389-3.52-2.807-3.52-2.419 0-2.548 1.922-2.548 3.282v16.087c0 1.793.302 3.412 2.764 3.412 2.591 0 2.591-1.878 2.591-3.692v-3.909H168v4.254c0 2.419 0 7.644-8.162 7.644-1.577 0-4.082-.302-5.831-1.446-2.375-1.577-2.375-3.909-2.375-5.572V8.35c0-2.418.129-4.08 1.49-5.57 2.159-2.333 5.571-2.376 6.716-2.376C168 .403 168 5.24 168 7.378v4.642h-5.485v-.064zM9.674 10.487h9.674c0-5.333-4.34-9.652-9.674-9.652S0 5.154 0 10.487c0 5.334 4.319 9.653 9.674 9.653v-9.653z" fill="#152733"/><path d="M11.553 22.04H1.879c0 5.312 4.34 9.63 9.674 9.63 5.333 0 9.674-4.318 9.674-9.63 0-5.334-4.34-9.652-9.674-9.652v9.652z" fill="#F1592A"/></g><defs><clipPath id="clip0"><path fill="#fff" transform="translate(0 .273)" d="M0 0h168v31.527H0z"/></clipPath></defs></svg>