<svg xmlns="http://www.w3.org/2000/svg" viewBox="0 0 166 24.07"><defs><style>.a{fill:#494848}.b{fill:#e03749}</style></defs><title>logo</title><path class="a" d="M0 18.09h2.11c.86 2.52 2.83 4.29 5 4.29 1.87 0 2.66-.93 2.66-2.21s-1.07-2-4.18-2.9C1.83 16.19.28 14.88.28 12.35s2.21-4.7 5.46-4.7a4.38 4.38 0 0 1 3.84 1.83l.35-1.83h2v5.43H9.89c-1.07-2.32-2.08-3.74-4.22-3.74a2.21 2.21 0 0 0-2.45 2c0 1.38 1.21 2.11 4 2.87 3.66 1 5.39 2.18 5.39 4.87 0 2.39-2.11 5-5.67 5A5.81 5.81 0 0 1 2.39 22L2 24.07H0zM20.29 3.81V8.1h5.19v2.11h-5.19v9.33c0 1.56.45 2.32 1.9 2.32 1 0 1.73-.9 2.42-2.73l1.56.66c-.9 3-2.73 4.29-4.94 4.29-2.77 0-4.18-1.63-4.18-4.22v-9.65h-3.12V8.1H17V4.16zm7.19 12.1c0-4.81 3.18-8.26 7.92-8.26s7.88 3.32 7.88 8.12-3.18 8.3-7.88 8.3c-4.94 0-7.92-3.32-7.92-8.16zm12.2-.07c0-4.36-1.69-6.33-4.46-6.33s-4.15 2-4.15 6.33 1.69 6.36 4.46 6.36 4.16-2 4.16-6.36zm6.06 5.64h2.52V10.21h-2.52V7.93h5.7v3.66a5 5 0 0 1 4.67-3.87 2.59 2.59 0 0 1 2.77 2.7 2.17 2.17 0 0 1-2.07 2.25 2 2 0 0 1-2.18-2 3.87 3.87 0 0 1 .07-.59c-1.56-.07-2.63 1.69-3.18 3.77v7.68h3v2.28h-8.78zM81.62 7.72c2.52 0 4 1.83 4 4.94v8.82h2.52v2.28h-7.87v-2.28h2.14v-7.64a4 4 0 0 0-.82-2.84 2.3 2.3 0 0 0-1.73-.62c-1.73 0-4 1.9-4 5.08v6H78v2.28h-7.51v-2.26h2.14v-7.64A4 4 0 0 0 71.8 11a2.3 2.3 0 0 0-1.73-.62c-1.76 0-4 1.9-4 5.08v6h2.14v2.28h-7.89v-2.26h2.52V10.21h-2.52V7.93H66v4c1.8-3 3.73-4.22 5.81-4.22s3.77 1.21 4 4c1.87-2.85 3.74-3.99 5.81-3.99z"/><path class="b" d="M91.54 22h2.94V10h-2.94V8.19h5.6V22h2.94v1.8h-8.54zm2.1-19.27a1.92 1.92 0 0 1 2-2 1.87 1.87 0 0 1 1.9 2 1.87 1.87 0 0 1-1.9 2 1.84 1.84 0 0 1-2-2zm10.72 19.78a8.64 8.64 0 0 1-2.25-6.33 9.5 9.5 0 0 1 2.39-6.6 5.47 5.47 0 0 1 4-1.66 5.32 5.32 0 0 1 4.84 3V1.87h-2.63V0H116v22h2.49v1.8h-5.08v-3.44c-1.21 2.45-3.11 3.66-5.22 3.66a5.32 5.32 0 0 1-3.83-1.51zm9.09-6.78c0-3.6-1.76-6-4.29-6s-4.11 2.35-4.11 6.29 1.76 6.22 4 6.22 4.4-2.57 4.4-6.51zm9.96.38c.07 4 2 6.12 5 6.12a4.36 4.36 0 0 0 4.43-3h1.45a6.28 6.28 0 0 1-6.46 4.87c-4.53 0-7.29-3.28-7.29-7.92s3.25-8.23 7.4-8.23c4.53 0 6.53 4.08 6.43 8.19zm0-1.49h8.12c-.24-3.25-1.45-5.22-3.84-5.22s-3.9 1.77-4.25 5.22zm13.79 5.33a4 4 0 0 1 1.07-2.77c1.21-1.21 2.87-1.66 5.91-2.14 2.11-.35 2.45-.41 2.45-1v-1.53c0-2.28-1.14-3.11-3.22-3.11a4.69 4.69 0 0 0-3 .9 1.71 1.71 0 0 1 .93 1.59 1.7 1.7 0 0 1-1.8 1.76 1.77 1.77 0 0 1-1.83-1.87c0-2.25 2.9-3.84 6.12-3.84 3.56 0 5.46 1.52 5.46 4.67v8.12c0 1.07.35 1.38 1 1.38s1-.48 1.38-1.38l1 .59c-.8 1.76-1.66 2.59-3.22 2.59s-2.45-.82-2.45-2.86h-.1a6.13 6.13 0 0 1-5.24 2.95c-2.83 0-4.46-1.63-4.46-4.05zm9.44-1.11v-3.08a13.59 13.59 0 0 1-1.69.35c-3.53.55-4.81 1.28-4.81 3.35a2.41 2.41 0 0 0 2.7 2.7c1.83 0 3.8-1.52 3.8-3.32zm7.23-.66h1.59c.83 2.73 2.7 4.46 5.15 4.46 1.94 0 3-1 3-2.42s-1.11-2.25-4.22-3.11c-3.8-1.07-5.29-2.32-5.29-4.7s2.11-4.49 5.22-4.49a4.66 4.66 0 0 1 4 1.87l.38-1.87h1.52v5.32h-1.52c-1.07-2.52-2.14-3.91-4.46-3.91-1.45 0-2.77.83-2.77 2.25s1.24 2.25 4.08 3c3.8 1 5.36 2.11 5.36 4.7 0 2.35-2 4.74-5.39 4.74a6 6 0 0 1-4.84-2.18l-.38 2.18h-1.52z"/></svg>