<svg width="84" height="70" fill="none" xmlns="http://www.w3.org/2000/svg"><path d="M38.83 64.761c.471 3.273 2.247 5.021 5.301 5.218 1.411.091 2.444-.111 3.474-.681a5.567 5.567 0 0 0 2.113-2.128c.069-.126.14-.234.156-.24.02-.007.03.417.03 1.321v1.33h2.732V52.807h-2.76l-.008 5.336-.01 5.335-.079.36c-.237 1.065-.725 2.008-1.386 2.672a4.004 4.004 0 0 1-2.057 1.123c-.348.077-1.434.077-1.815 0-.809-.164-1.393-.472-1.892-.998-.624-.657-.99-1.572-1.174-2.934-.046-.335-.052-.894-.061-5.663l-.011-5.29H38.68l.011 5.47c.013 5.651.014 5.674.139 6.544ZM21.763 68.722v.86H35.508v-2.299h-4.884c-2.686 0-4.883-.006-4.883-.014s2.224-3.105 4.943-6.883l4.942-6.869v-.771H22.683l.007 1.142.008 1.142 4.475.015 4.474.014-4.942 6.832-4.942 6.831ZM58.01 61.144c0 4.619.008 8.407.019 8.418.01.01.618.02 1.35.02h1.33l.008-4.739c.006-3.207.019-4.834.04-5.034a8.152 8.152 0 0 1 1.13-3.266 3.385 3.385 0 0 1 2.772-1.608c.668-.035 1.224.077 1.788.36l.32.162v-2.82l-.112-.037c-.354-.116-.658-.159-1.24-.174-.463-.012-.658-.005-.89.033a3.903 3.903 0 0 0-2.134 1.067 5.987 5.987 0 0 0-1.509 2.336c-.066.191-.132.347-.146.347-.014 0-.025-.78-.025-1.731v-1.732H58.01v8.398Z" fill="#000"/><path fill-rule="evenodd" clip-rule="evenodd" d="M.04 69.544c.006-.02 2.015-5.326 4.463-11.79L8.953 46h2.86l.12.306c.362.935 8.91 23.25 8.91 23.261 0 .008-.685.014-1.522.014H17.8l-1.232-3.298-1.232-3.299H5.415l-.043.112c-.024.062-.55 1.546-1.17 3.298L3.075 69.58H1.551c-1.206.001-1.522-.006-1.512-.036Zm12.548-14.098c1.014 2.757 1.843 5.017 1.843 5.022 0 .005-1.824.01-4.052.01-2.23 0-4.053-.012-4.053-.026 0-.014.814-2.254 1.808-4.978.994-2.723 1.847-5.08 1.897-5.235.1-.315.229-.881.258-1.134.042-.355.078-.344.148.044.15.828.256 1.139 2.151 6.297ZM75.126 69.966a7.131 7.131 0 0 1-3.14-1.032c-1.956-1.216-3.113-3.22-3.452-5.98-.117-.954-.131-2.236-.033-3.047.218-1.813.926-3.592 1.935-4.862a9.907 9.907 0 0 1 1.17-1.176 7.264 7.264 0 0 1 2.983-1.432c.632-.139 1.747-.204 2.419-.141 1.689.157 3.237.957 4.288 2.215 1.07 1.278 1.657 3.065 1.732 5.265.012.345.015.95.006 1.343l-.015.717-5.915.007-5.915.008v.265c0 .808.196 1.728.534 2.511.29.675.792 1.413 1.203 1.77a5.273 5.273 0 0 0 2.998 1.274c.418.04 1.483-.002 1.96-.075 1.358-.21 2.65-.746 3.693-1.532.123-.093.24-.18.261-.193.031-.019.038.223.037 1.24v1.262l-.28.174a9.755 9.755 0 0 1-3.964 1.381c-.427.053-1.994.076-2.505.038Zm3.778-14.28c.802.773 1.37 2.277 1.37 3.63v.236h-9.058l.019-.142c.04-.297.171-.832.283-1.158a6.068 6.068 0 0 1 1.464-2.357 4.23 4.23 0 0 1 2.212-1.182c.41-.083 1.232-.107 1.621-.046.823.128 1.516.466 2.089 1.018Z" fill="#000"/><path d="M40.096 37.864c6.68-1.172 12.198-2.142 12.262-2.155l.115-.025-6.307-7.45c-3.47-4.098-6.308-7.467-6.308-7.487 0-.036 6.513-17.848 6.55-17.911.012-.021 4.444 7.578 10.744 18.421l10.805 18.6.082.143-20.045-.003-20.046-.002 12.148-2.131Zm-24.057-2.272c0-.01 2.972-5.135 6.604-11.386l6.605-11.367 7.697-6.415C41.178 2.896 44.653.005 44.667 0c.014-.005-.042.134-.124.31l-8.358 17.802-8.208 17.484-5.969.007c-3.283.004-5.969-.001-5.969-.011Z" fill="#0089D6"/></svg>