<svg width="61" height="73" fill="none" xmlns="http://www.w3.org/2000/svg"><path d="M41 41.64c0 4.558-4.977 8.253-11.118 8.253-6.142 0-11.12-3.695-11.12-8.253s4.978-8.252 11.12-8.252c6.14 0 11.119 3.694 11.119 8.252Z" fill="url(#a)"/><path d="M38.728 68.683s-5.593-.399-6.658-.665c0 0-1.331 0-2.53.266 0 0-4.926.8-7.456.4L8.636 50.708s-2.13-4.26 3.462-14.247c0 0 5.46-8.388 6.258-9.186.8-.799 2.663-4.793 2.53-9.587 0 0-3.728-17.042 9.853-17.574 0 0 9.986-1.865 11.717 9.452 0 0 .472 9.894.532 10.918.06 1.024.364 3.244 5.193 9.188 4.829 5.943 12.249 13.713 5.06 22.9l-14.513 16.11Z" fill="#000"/><path d="M23.11 22.978s-.46 6.062-4.151 13.31c0 0-2.9 5.535-3.36 11.465 0 0-4.085-4.612 1.647-13.771 0 0 .407-.528.126-.65 0 0-.19-.197-.554.441 0 0-5.985 8.775-2.91 14.134 0 0 .703 1.186 2.196 2.46 0 0 3.514 2.328 4.525 3.383 1.01 1.054 4.13 4.13 2.284 5.842 0 0-.703.747-1.89.616 0 0 1.802 5.49 10.236 5.183 0 0 5.14-.571 8.698-3.646L52.6 51.79l.669-1.248s1.801-2.812-4.306-5.183c0 0 2.196-5.975-4.744-13.135 0 0-.834-.572-.483.263 0 0 6.326 5.623 3.69 12.389 0 0-.81.28-1.362-.089 0 0-1.186-5.447-3.998-10.499 0 0-4.458-9.4-4.59-13.09-.131-3.69-14.364 1.779-14.364 1.779ZM27.562 14.175c0 2.238-1.167 4.053-2.606 4.053-1.44 0-2.606-1.815-2.606-4.053s1.167-4.052 2.606-4.052c1.44 0 2.606 1.814 2.606 4.052ZM37.48 14.297c0 2.6-1.627 4.708-3.632 4.708s-3.631-2.108-3.631-4.708 1.626-4.708 3.631-4.708 3.631 2.108 3.631 4.708Z" fill="#fff"/><path d="M25.886 15.146c0 1.143-.493 2.07-1.101 2.07-.607 0-1.1-.927-1.1-2.07 0-1.142.493-2.069 1.1-2.069.608 0 1.1.927 1.1 2.07ZM35.394 15.24c0 1.647-.802 2.982-1.79 2.982-.99 0-1.791-1.335-1.791-2.983 0-1.647.8-2.982 1.79-2.982s1.79 1.335 1.79 2.982Z" fill="#000"/><path d="M22.698 22.365s-1.314-.787-.772-2.41c.23-.687.478-1.182 1.188-1.692 1.153-.83 1.01-.721 1.153-.83.144-.107 2.702-1.944 3.495-2.16.792-.217 2.522-.253 3.639.432 1.116.685 3.783 1.729 4.25 1.837.469.108 1.766.829 1.946 1.585.18.757-.18 1.838-.757 2.486-.576.649-1.585 1.334-2.774 1.837-1.189.505-1.62.865-2.378 1.297-.756.433-2.846 1.297-4.646.397-1.658-.956-1.493-.91-2.393-1.474-.577-.324-1.951-1.305-1.951-1.305Z" fill="#FC0"/><path d="m22.5 22.656-.01-.006a2.223 2.223 0 0 1-.22-.168 2.503 2.503 0 0 1-.456-.522c-.312-.477-.53-1.19-.222-2.115.118-.355.249-.684.453-.994a3.29 3.29 0 0 1 .863-.873c.946-.68 1.019-.729 1.089-.78l.057-.044h.001c.079-.059.76-.55 1.521-1.052.381-.252.786-.51 1.148-.719.351-.202.696-.38.943-.448.442-.12 1.114-.185 1.816-.133.702.052 1.475.222 2.099.605.532.327 1.456.75 2.32 1.11.87.363 1.626.638 1.826.684.295.068.779.302 1.205.605.218.155.434.337.61.538.176.2.33.437.392.702m-15.434 3.61 8.898-6.95c1.116.684 3.783 1.728 4.25 1.836.469.108 1.766.829 1.946 1.585.18.757-.18 1.838-.756 2.486M22.5 22.656l.007.006.045.032a83.114 83.114 0 0 0 .704.49c.41.282.906.615 1.212.787M22.5 22.656l2.146 1.014m13.288-4.624-.34.081.34-.081Zm0 0c.11.46.05.986-.1 1.47a3.712 3.712 0 0 1-.735 1.33m0 0-.261-.233m.261.233-.261-.233m.261.233c-.62.699-1.679 1.41-2.899 1.927m2.638-2.16c-.576.649-1.586 1.334-2.774 1.837a11.54 11.54 0 0 0-1.786.94c-.188.117-.377.234-.593.357m0 0 .174.304m-.174-.304c-.756.433-2.846 1.297-4.646.397-1.14-.658-1.418-.841-1.773-1.075a30.03 30.03 0 0 0-.62-.399m7.039 1.077.174.304m2.341-1.278-.136-.322.136.322Zm0 0c-.824.35-1.258.618-1.722.906-.191.118-.388.24-.619.372m0 0a6.833 6.833 0 0 1-2.04.739c-.889.166-1.946.163-2.937-.333l-.01-.005-.008-.005c-1.149-.663-1.436-.852-1.794-1.087-.16-.105-.333-.22-.602-.389m0 0 .007.004.172-.305m-.18.301-.006-.004.186-.297" stroke="#000" stroke-width=".7"/><path d="M23.252 65.093c.055-1.793-1.737-3.782-3.639-6.05-1.901-2.268-3.188-5.58-3.188-5.58-1.712-3.826-4.192-3.904-4.922-3.837a4.438 4.438 0 0 0-.652.09c-.891.191-1.793.662-2.419 1.413-1.156 1.388-1.616 2.42-2.333 2.597-.21.052-.539.094-.622.103-5.454.615-3.315 6.193-3.315 6.193.901 1.905-.58 4.038-.58 4.038-1.591 2.566 1.924 3.709 2.48 3.76.558.053 3.029.329 4.812.495 1.783.166 4.808 1.73 4.808 1.73 2.99 1.2 4.143.954 5.795.54 3.965-1.315 3.775-5.492 3.775-5.492ZM44.665 49.692s-3.154.45-3.404 5.404c0 0 0 3.554-.951 6.357-.952 2.803-1.74 5.19-1.201 6.957.538 1.767 2.079 3.688 5.506 3.754 2.77 0 3.624-.864 5.207-2.603 0 0 2.253-2.552 3.855-3.353 1.602-.801 3.805-1.952 4.306-2.202.57-.285 3.239-2.507.95-4.405 0 0-2.152-1.45-2.002-3.553 0 0-.4-5.906-5.707-4.505-5.307 1.401-6.559-1.851-6.559-1.851Z" fill="#FC0" stroke="#000" stroke-width="1.2"/><path d="M43.99 49.07s.246-3.4 3.402-2.504c0 0 3.155.735 4.814 2.503 0 0 1.442 1.686-.544 3.237 0 0-1.28 1.088-2.286 1.47 0 0-2.72 1.277-4.161-.436 0 0-1.251-1.496-1.224-4.27Z" fill="#000"/><path fill-rule="evenodd" clip-rule="evenodd" d="M36.296 19.406a.35.35 0 0 1-.09.487 28 28 0 0 1-3.418 1.974c-1.395.678-2.958 1.277-4.277 1.398-1.352.123-2.585-.324-3.565-.912-.979-.588-1.73-1.332-2.13-1.85a.35.35 0 0 1 .553-.428c.35.453 1.038 1.137 1.937 1.678.9.54 1.984.92 3.141.814 1.19-.108 2.659-.661 4.035-1.33a27.282 27.282 0 0 0 3.328-1.92.35.35 0 0 1 .486.089Z" fill="#000"/><defs><linearGradient id="a" x1="30.31" y1="31.599" x2="29.054" y2="61.007" gradientUnits="userSpaceOnUse"><stop offset=".644" stop-color="#fff"/><stop offset=".683" stop-color="#CCC"/><stop offset=".729" stop-color="#979797"/><stop offset=".775" stop-color="#686868"/><stop offset=".822" stop-color="#434343"/><stop offset=".868" stop-color="#262626"/><stop offset=".913" stop-color="#111"/><stop offset=".957" stop-color="#040404"/><stop offset="1"/></linearGradient></defs></svg>