<svg width="64" height="74" fill="none" xmlns="http://www.w3.org/2000/svg"><path d="M7.854 7.63a3.815 3.815 0 1 0 0-7.63 3.815 3.815 0 0 0 0 7.63Z" fill="#2A95D5"/><path fill-rule="evenodd" clip-rule="evenodd" d="M36.698 8.394h-13.43c-5.563 0-10.073 4.509-10.073 10.072v13.43c0 5.563 4.51 10.072 10.072 10.072h13.43c5.563 0 10.073-4.51 10.073-10.072v-13.43c0-5.563-4.51-10.072-10.072-10.072Zm-.6 29.988a7.085 7.085 0 1 0 0-14.17 7.085 7.085 0 0 0 0 14.17Zm-14.173-16.66a4.578 4.578 0 1 0 0-9.157 4.578 4.578 0 0 0 0 9.157Z" fill="#2A95D5"/><path d="M0 67.301V54.34h1.44v2.147c0-.036.07-.142.206-.318a5.25 5.25 0 0 1 .618-.636c.274-.248.579-.486.914-.716.35-.23.778-.415 1.28-.557a4.912 4.912 0 0 1 1.51-.185c1.479 0 2.599.468 3.361 1.404.778.92 1.166 2.245 1.166 3.976v7.846h-1.44v-7.687c0-2.72-1.159-4.081-3.476-4.081a3.782 3.782 0 0 0-1.395.212 4.085 4.085 0 0 0-1.166.61c-.32.247-.602.503-.846.768a4.99 4.99 0 0 0-.549.689c-.121.194-.182.31-.182.345V67.3H0ZM24.69 54.34V67.3h-1.44v-2.147c0 .036-.069.142-.206.318a5.249 5.249 0 0 1-.617.636 7.693 7.693 0 0 1-.938.716c-.35.23-.777.415-1.28.557a4.713 4.713 0 0 1-1.486.185c-1.48 0-2.607-.46-3.384-1.378-.763-.937-1.144-2.27-1.144-4.003V54.34h1.44v7.686c0 2.722 1.16 4.082 3.476 4.082.473.018.938-.053 1.395-.212a4.085 4.085 0 0 0 1.166-.61c.32-.247.602-.503.846-.768a4.98 4.98 0 0 0 .549-.69c.122-.194.183-.308.183-.344V54.34h1.44ZM33.604 54.048c1.113 0 2.027.256 2.744.769.685.477 1.204 1.007 1.554 1.59v-2.014h1.395v11.795c0 2.812-.503 4.914-1.509 6.063-.99 1.166-2.454 1.749-4.39 1.749a8.318 8.318 0 0 1-2.035-.265c-.686-.177-1.22-.353-1.6-.53-.382-.177-.572-.292-.572-.345l.297-1.431c0 .053.175.159.526.318.35.177.838.345 1.463.504.625.176 1.22.265 1.784.265 3.094 0 4.641-2.016 4.641-6.355v-1.007c-1.02 1.538-2.454 2.306-4.298 2.306-1.616 0-2.942-.627-3.979-1.882-1.037-1.254-1.555-2.862-1.555-4.824 0-1.961.518-3.57 1.555-4.824 1.037-1.255 2.363-1.882 3.979-1.882Zm.343 11.928c1.097 0 1.95-.274 2.56-.822.626-.565 1.09-1.13 1.395-1.696v-5.38c-.32-.584-.777-1.15-1.371-1.697-.61-.583-1.471-.875-2.584-.875-1.296 0-2.356.495-3.179 1.484-.823.99-1.234 2.253-1.234 3.79 0 1.52.411 2.766 1.234 3.738s1.883 1.458 3.179 1.458ZM48.438 54.048c1.585 0 2.873.566 3.864 1.697 1.006 1.13 1.509 2.58 1.509 4.347 0 .247-.008.52-.023.821l-.023.45H43.98c.107 1.45.61 2.607 1.509 3.473.915.866 2.096 1.299 3.544 1.299a7.04 7.04 0 0 0 2.012-.292c.67-.194 1.174-.38 1.51-.556.335-.195.502-.327.502-.398l.32 1.431c0 .071-.182.204-.548.398-.35.194-.9.389-1.647.583a9.132 9.132 0 0 1-2.309.292c-1.936 0-3.476-.627-4.619-1.882-1.143-1.255-1.715-2.898-1.715-4.93 0-1.944.557-3.552 1.67-4.824 1.112-1.273 2.522-1.909 4.23-1.909Zm-4.46 6.097h8.484v-.398c-.03-1.255-.42-2.28-1.166-3.075-.732-.795-1.677-1.192-2.836-1.192-1.25 0-2.286.432-3.11 1.298-.807.849-1.264 1.97-1.371 3.367ZM55.494 55.798V54.34h2.47V51l1.44-.5v3.84h3.367v1.458h-3.367v7.474c0 .866.206 1.547.617 2.041.412.495.991.751 1.738.769.335 0 .656-.044.96-.133.305-.088.526-.176.664-.265.152-.088.251-.159.297-.212l.32 1.405c-.686.477-1.502.716-2.447.716-1.112 0-1.989-.38-2.63-1.14-.64-.76-.96-1.82-.96-3.18v-7.475h-2.469Z" fill="#000"/></svg>