<svg width="68" height="68" fill="none" xmlns="http://www.w3.org/2000/svg"><path d="M48.376 14.766 34.971 35.65 56.73 68l11.268-45.56-19.623-7.674Z" fill="url(#a)"/><path d="M49.639 15.251 47.599 0 18.262 32.64l8.548 8.451L20.205 68H56.73L49.64 15.251Z" fill="url(#b)"/><path d="M47.6 0H11.269L0 45.754h54.011L47.6 0Z" fill="url(#c)"/><path d="m53.72 45.754-4.08-30.503L47.6 0l-7.092 22.343 13.211 23.411Z" fill="url(#d)"/><path d="m13.01 55.106 41.967-.108-.109-41.966-41.965.108.108 41.966Z" fill="#000"/><path d="m32.829 47.191-15.737.04.007 2.624 15.737-.04-.007-2.624ZM16.902 18.554h7.965c2.235 0 3.886.583 5.052 1.749.971.971 1.457 2.331 1.457 3.983v.097c0 1.457-.291 2.526-1.069 3.4-.68.874-1.554 1.554-2.72 1.943l4.275 6.217h-4.469L23.8 30.6h-3.206v5.343h-3.788l.097-17.389Zm7.674 8.452c.971 0 1.651-.195 2.137-.68.486-.486.777-1.069.777-1.749v-.097c0-.874-.291-1.457-.777-1.846-.486-.388-1.263-.582-2.234-.582H20.69v4.954h3.886ZM34.97 32.252h-1.845v-3.206h2.429l.582-3.692h-2.234V22.15h2.72l.583-3.595h3.303l-.583 3.595h3.594l.583-3.595h3.303l-.583 3.595h1.846v3.205h-2.429l-.583 3.692h2.235v3.206h-2.72l-.68 3.69h-3.303l.68-3.69h-3.594l-.68 3.69H34.29l.68-3.69Zm7.48-3.206.584-3.692h-3.595l-.583 3.692h3.595Z" fill="#fff"/><defs><linearGradient id="a" x1="22.289" y1="73.622" x2="72.649" y2="20.052" gradientUnits="userSpaceOnUse"><stop offset=".016" stop-color="#E343E6"/><stop offset=".404" stop-color="#C91268"/><stop offset=".468" stop-color="#CC1F58"/><stop offset=".65" stop-color="#EB8021"/><stop offset=".952" stop-color="#FDB603"/></linearGradient><linearGradient id="b" x1="17.211" y1="71.198" x2="67.567" y2="17.633" gradientUnits="userSpaceOnUse"><stop offset=".016" stop-color="#E343E6"/><stop offset=".404" stop-color="#CD1B80"/><stop offset=".468" stop-color="#CC1F57"/><stop offset=".704" stop-color="#E56E2A"/></linearGradient><linearGradient id="c" x1="1.776" y1="51.901" x2="47.429" y2="8.962" gradientUnits="userSpaceOnUse"><stop offset=".016" stop-color="#DE3ACD"/><stop offset=".661" stop-color="#CC0A57"/></linearGradient><linearGradient id="d" x1="48.467" y1="-11.227" x2="47.462" y2="23.349" gradientUnits="userSpaceOnUse"><stop offset=".5" stop-color="#C41E57"/><stop offset=".667" stop-color="#D13F48"/><stop offset=".795" stop-color="#D94F39"/><stop offset=".866" stop-color="#DD5433"/></linearGradient></defs></svg>