<svg width="123" height="60" fill="none" xmlns="http://www.w3.org/2000/svg"><path d="M14.068 43.05 8.041 59.328h-2.1L.04 43.051h2.123l4.506 12.905c.143.417.253.897.33 1.442h.045a7.04 7.04 0 0 1 .375-1.464l4.596-12.883h2.054ZM16.414 44.753c-.333 0-.617-.113-.851-.34a1.15 1.15 0 0 1-.352-.863c0-.347.117-.637.352-.868.234-.231.518-.347.85-.347.341 0 .63.116.87.347.237.231.357.52.357.868 0 .333-.12.617-.358.852-.238.234-.528.35-.868.35Zm.908 14.574H15.46V47.704h1.86v11.623ZM19.688 58.907v-1.998c1.014.75 2.13 1.124 3.348 1.124 1.635 0 2.452-.545 2.452-1.635 0-.31-.07-.573-.21-.789a2.093 2.093 0 0 0-.567-.573 4.38 4.38 0 0 0-.84-.449c-.322-.132-.668-.27-1.039-.414a13.21 13.21 0 0 1-1.356-.619 4.1 4.1 0 0 1-.976-.703 2.624 2.624 0 0 1-.59-.891 3.158 3.158 0 0 1-.2-1.17c0-.544.126-1.026.376-1.446.25-.421.582-.772.998-1.056.417-.284.891-.497 1.425-.641a6.338 6.338 0 0 1 1.651-.215c1.007 0 1.907.173 2.702.521v1.885c-.855-.56-1.838-.84-2.951-.84-.348 0-.662.04-.942.12-.28.078-.52.19-.72.334-.2.143-.356.316-.466.516-.11.2-.165.422-.165.664 0 .302.055.556.165.761.11.203.27.386.482.545.212.158.47.302.772.43.302.13.647.27 1.033.421.514.197.976.4 1.385.608.408.208.756.443 1.044.703.288.262.51.563.665.902.155.341.232.745.232 1.215 0 .575-.127 1.075-.38 1.498A3.262 3.262 0 0 1 26 58.77c-.424.28-.912.488-1.465.625a7.223 7.223 0 0 1-1.737.204c-1.196 0-2.233-.23-3.11-.692ZM38.957 59.327h-1.861V57.49h-.046c-.771 1.407-1.967 2.11-3.586 2.11-2.77 0-4.155-1.65-4.155-4.949v-6.946h1.85v6.65c0 2.453.938 3.678 2.815 3.678.908 0 1.656-.334 2.242-1.005.587-.67.88-1.545.88-2.627v-6.697h1.861v11.624ZM50.336 59.327h-1.86v-1.816h-.047c-.81 1.392-2 2.089-3.575 2.089-1.158 0-2.063-.306-2.718-.92-.655-.612-.983-1.426-.983-2.44 0-2.172 1.279-3.436 3.837-3.792l3.484-.488c0-1.974-.798-2.962-2.395-2.962-1.4 0-2.663.477-3.79 1.43v-1.907c1.142-.727 2.459-1.09 3.95-1.09 2.732 0 4.097 1.446 4.097 4.336v7.56Zm-1.862-5.88-2.803.387c-.863.12-1.514.334-1.952.641-.439.306-.659.85-.659 1.629 0 .567.203 1.03.608 1.39.405.36.944.54 1.617.54.923 0 1.687-.325 2.287-.971.602-.647.902-1.466.902-2.458v-1.157ZM55.007 59.327h-1.861V42.12h1.861v17.207ZM60.823 58.669v-2.247c.257.227.566.43.925.612a7.5 7.5 0 0 0 1.135.46c.397.124.797.221 1.198.29.4.068.771.102 1.112.102 1.172 0 2.049-.217 2.627-.653.58-.435.869-1.061.869-1.878 0-.44-.097-.822-.29-1.146a3.253 3.253 0 0 0-.8-.891 7.945 7.945 0 0 0-1.209-.772 94.446 94.446 0 0 0-1.504-.777 26.08 26.08 0 0 1-1.589-.874 6.898 6.898 0 0 1-1.282-.977 4.083 4.083 0 0 1-.857-1.208c-.209-.45-.313-.979-.313-1.583 0-.742.163-1.387.488-1.935a4.201 4.201 0 0 1 1.282-1.358 5.823 5.823 0 0 1 1.812-.794 8.287 8.287 0 0 1 2.071-.261c1.604 0 2.773.192 3.507.578v2.145c-.96-.666-2.194-.999-3.7-.999-.416 0-.833.044-1.249.13-.417.088-.787.23-1.112.426-.325.197-.59.45-.795.761-.204.31-.306.688-.306 1.135 0 .416.078.776.233 1.079.155.302.384.578.687.828.302.25.672.491 1.107.726.435.235.936.492 1.504.772.582.288 1.135.59 1.657.908.522.318.98.67 1.374 1.055.392.387.705.813.936 1.283.231.47.346 1.006.346 1.611 0 .802-.157 1.482-.47 2.038a3.876 3.876 0 0 1-1.272 1.357 5.54 5.54 0 0 1-1.844.754 10.1 10.1 0 0 1-2.203.233c-.258 0-.576-.02-.953-.062a13.411 13.411 0 0 1-1.158-.181 9.435 9.435 0 0 1-1.118-.296 3.457 3.457 0 0 1-.846-.391ZM77.977 59.214c-.439.242-1.017.363-1.736.363-2.036 0-3.052-1.135-3.052-3.405v-6.879H71.19v-1.589h1.998v-2.837l1.86-.601v3.438h2.928v1.59H75.05v6.549c0 .779.132 1.334.396 1.668.265.334.704.5 1.317.5.469 0 .874-.13 1.214-.387v1.59ZM89.51 59.327h-1.86V57.49h-.046c-.772 1.407-1.967 2.11-3.587 2.11-2.769 0-4.153-1.65-4.153-4.949v-6.946h1.85v6.65c0 2.453.938 3.678 2.815 3.678.908 0 1.655-.334 2.242-1.005.585-.67.879-1.545.879-2.627v-6.697h1.86v11.624ZM102.84 59.327h-1.861v-1.975h-.046c-.862 1.498-2.194 2.248-3.995 2.248-1.46 0-2.627-.52-3.502-1.561-.873-1.04-1.31-2.457-1.31-4.251 0-1.922.484-3.462 1.453-4.62.968-1.158 2.258-1.736 3.87-1.736 1.597 0 2.759.628 3.484 1.885h.046V42.12h1.861v17.207Zm-1.861-5.255v-1.714c0-.938-.31-1.733-.93-2.384-.62-.65-1.408-.976-2.361-.976-1.135 0-2.028.416-2.678 1.248-.651.833-.977 1.983-.977 3.451 0 1.34.312 2.397.937 3.172.624.776 1.462 1.164 2.514 1.164 1.037 0 1.879-.374 2.526-1.124.645-.748.969-1.694.969-2.837ZM107.214 44.753a1.18 1.18 0 0 1-.852-.34 1.153 1.153 0 0 1-.352-.863c0-.347.117-.637.352-.868a1.17 1.17 0 0 1 .852-.347c.34 0 .629.116.868.347.238.231.358.52.358.868 0 .333-.12.617-.358.852-.239.234-.528.35-.868.35Zm.908 14.574h-1.862V47.704h1.862v11.623ZM116.4 59.6c-1.718 0-3.09-.543-4.116-1.63-1.025-1.085-1.538-2.525-1.538-4.318 0-1.953.534-3.477 1.601-4.575 1.067-1.097 2.509-1.645 4.326-1.645 1.733 0 3.085.533 4.056 1.6.973 1.067 1.459 2.547 1.459 4.438 0 1.855-.524 3.34-1.572 4.455-1.048 1.117-2.453 1.675-4.216 1.675Zm.136-10.601c-1.197 0-2.141.407-2.838 1.22-.696.813-1.045 1.935-1.045 3.365 0 1.378.353 2.463 1.056 3.258.704.794 1.646 1.192 2.827 1.192 1.203 0 2.128-.39 2.775-1.17.646-.779.97-1.888.97-3.326 0-1.453-.324-2.572-.97-3.359-.647-.787-1.573-1.18-2.775-1.18Z" fill="#000"/><path d="m48.223 28.85-.639.548a1.564 1.564 0 0 1-1.62.256l-2.842-1.185a1.565 1.565 0 0 1-.963-1.445v-16.69a1.565 1.565 0 0 1 .963-1.444l2.843-1.184a1.565 1.565 0 0 1 1.62.256l.638.547a.866.866 0 0 0-1.37.704v18.933a.866.866 0 0 0 1.37.704Z" fill="#52218A"/><path d="M79.713 6.072v.09a1.48 1.48 0 0 0-2.42-1.146L48.223 28.85l-.639.548a1.565 1.565 0 0 1-1.62.256l-2.842-1.185a1.565 1.565 0 0 1-.963-1.444v-.13a.904.904 0 0 0 1.574.605L67.977.685a2.339 2.339 0 0 1 2.67-.453l7.736 3.725a2.347 2.347 0 0 1 1.33 2.115Z" fill="#6C33AF"/><path d="M79.713 31.197v.09a2.347 2.347 0 0 1-1.33 2.115l-7.738 3.725a2.338 2.338 0 0 1-2.668-.453L43.733 9.859a.904.904 0 0 0-1.574.605v-.13a1.565 1.565 0 0 1 .963-1.444l2.843-1.184a1.565 1.565 0 0 1 1.62.256l.638.547 29.07 23.834a1.481 1.481 0 0 0 2.42-1.146Z" fill="#854CC7"/><path d="M67.976 36.674c.054.054.115.1.173.147a1.46 1.46 0 0 1-.173-.147ZM68.15.538a1.468 1.468 0 0 0-.173.147c.055-.054.115-.1.173-.147ZM78.382 3.95 70.645.231a2.335 2.335 0 0 0-2.496.307 1.376 1.376 0 0 1 2.174 1.12v34.044a1.376 1.376 0 0 1-2.174 1.12 2.335 2.335 0 0 0 2.496.306l7.737-3.72a2.348 2.348 0 0 0 1.33-2.115V6.067a2.348 2.348 0 0 0-1.33-2.116Z" fill="#B179F1"/></svg>